<svg xmlns="http://www.w3.org/2000/svg" width="24.95" height="18.713" viewBox="0 0 24.95 18.713">
  <g id="people-fill" transform="translate(0 -4.5)">
    <path id="Pfad_41" data-name="Pfad 41" d="M10.916,23.213a1.527,1.527,0,0,1-1.559-1.559c0-1.559,1.559-6.238,7.8-6.238s7.8,4.678,7.8,6.238a1.527,1.527,0,0,1-1.559,1.559Zm6.238-9.356a4.678,4.678,0,1,0-4.678-4.678A4.678,4.678,0,0,0,17.153,13.856Zm-9.02,9.356A3.49,3.49,0,0,1,7.8,21.653a7.441,7.441,0,0,1,3.019-5.8A9.863,9.863,0,0,0,7.8,15.416c-6.238,0-7.8,4.678-7.8,6.238a1.527,1.527,0,0,0,1.559,1.559ZM7.017,13.856a3.9,3.9,0,1,0-3.9-3.9A3.9,3.9,0,0,0,7.017,13.856Z" fill-rule="evenodd"/>
  </g>
</svg>
