<svg xmlns="http://www.w3.org/2000/svg" width="30.849" height="30.849" viewBox="0 0 30.849 30.849">
  <path id="Icon_metro-facebook" data-name="Icon metro-facebook" d="M28.278,1.928H7.712A5.141,5.141,0,0,0,2.571,7.07V27.635a5.141,5.141,0,0,0,5.141,5.142H17.995V19.28H14.139V15.424h3.856V12.532a4.82,4.82,0,0,1,4.82-4.82h4.82v3.856h-4.82a.964.964,0,0,0-.964.964v2.892h5.3l-.964,3.856H21.851v13.5h6.427a5.141,5.141,0,0,0,5.141-5.142V7.07a5.141,5.141,0,0,0-5.141-5.142Z" transform="translate(-2.571 -1.928)" fill="#fff"/>
</svg>
