<?xml version="1.0" encoding="utf-8"?>
<!-- Generator: Adobe Illustrator 25.2.0, SVG Export Plug-In . SVG Version: 6.00 Build 0)  -->
<svg version="1.1" id="go" xmlns="http://www.w3.org/2000/svg" xmlns:xlink="http://www.w3.org/1999/xlink" x="0px" y="0px"
	 viewBox="0 0 416.3 68.6" style="enable-background:new 0 0 416.3 68.6;" xml:space="preserve">
<style type="text/css">
	.st0{fill:#890000;}
	.st1{enable-background:new    ;}
	.st2{fill:#8E0000;}
</style>
<g id="_000000ff" transform="translate(76.413 7.297)">
	<path id="Pfad_3" class="st0" d="M242.3,3.8h0.2c0.4,0.1,0.9,0.2,1.3,0.4C243.2,4.2,242.7,4.1,242.3,3.8z"/>
	<path id="Pfad_4" class="st0" d="M252.6,4.1"/>
	<path id="Pfad_5" class="st0" d="M243.5,4.4c0.2-0.1,0.3-0.1,0.3,0.1C243.6,4.7,243.5,4.6,243.5,4.4z"/>
	<path id="Pfad_6" class="st0" d="M245.3,4.8c0-0.3,0.4-0.2,0.5,0C245.8,5.1,245.4,5,245.3,4.8z"/>
	<path id="Pfad_7" class="st0" d="M250.3,5.1c0.3-0.2,0.6-0.1,0.9-0.1C251,5.3,250.5,5.2,250.3,5.1z"/>
	<path id="Pfad_8" class="st0" d="M240.1,5.2C240.7,5.2,239.9,5.7,240.1,5.2z"/>
	<path id="Pfad_9" class="st0" d="M245,5.2c0.4,0,0.8,0.1,1.1,0.1C245.8,5.6,245.1,5.7,245,5.2z"/>
	<path id="Pfad_10" class="st0" d="M248,5.2c0.2-0.1,0.4-0.1,0.6,0.1C248.5,5.7,247.9,5.5,248,5.2z"/>
	<path id="Pfad_11" class="st0" d="M254.1,5.1c0.6,0,1.2,0,1.9,0c2.2,0.2,4.4,0.5,6.6,0.9c2.1,0.5,4.3,0.6,6.5,1.2
		c1,0.1,1.9,0.2,2.9,0.3c2.7,0.5,5.3,0.9,8,1.3c1.3,0.4,2.6,0.6,3.9,0.9c-1.3,0-2.6-0.5-3.9-0.5c0.2,0.2,0.5,0.4,0.8,0.4
		c1.1,0.2,2.1,0.5,3.2,0.6c1.3,0.2,2.6,0.7,3.9,1c1.9,0.5,3.8,1.2,5.8,1.6c0.9,0.2,1.7,0.5,2.5,0.9l-0.2,0.6l0.8-0.1l-0.3,0.2
		l0.3,0.2c-2.2-0.5-4.4-1.1-6.6-1.4l-0.4,0.4c0.8,0.4,1.6,0.7,2.5,0.9c1.2,0.2,2.4,0.7,3.6,0.9c0.7,0.3,1.5,0.5,2.3,0.7
		c0.5,0,1.1,0.2,1.5,0.4c0.8,0.3,1.7,0.4,2.5,0.7c0.7,0.3,1.4,0.4,2.1,0.6c0.4,0.4,1,0.4,1.5,0.6c1.1,0.5,2.2,0.6,3.3,1.1l0.3-0.1
		c0.7,0.1,1.4,0.1,2.2,0c0,0.3,0,0.5,0,0.8c-0.3,0-0.5,0-0.7,0c-0.2-0.1-0.4-0.1-0.6-0.1c0.9,0.5,1.8,0.8,2.8,1.2
		c0.7,0.3,1.5,0.5,2.3,0.7l0.1-0.3c0,0.3,0.1,0.6,0.1,0.9c0.6-0.1,1.3-0.1,1.9-0.1c-0.1-0.3-0.2-0.5-0.2-0.7c0.9,0.5,1.7,1.2,2.4,2
		c1,0,2-0.1,3-0.2c1,0.2,2.1-0.2,2.7-1c0.3-0.3,0.8-0.2,1.2-0.4c0.1-0.2,0.2-0.3,0.2-0.5c0.8,0,1.6-0.1,2.4-0.3
		c0.2,0.1,0.4,0.3,0.5,0.4l-0.5,0.5c0,0.6,0.1,1.3,0.4,1.8c-0.1,0.1-0.1,0.3-0.2,0.4c0.1,0.4,0,1.1,0.5,1.3v0.3
		c0.5,0.7,0.8,1.4,1,2.2v0.2c-0.7,0.2-1.5,0.1-2.2-0.3c0.3,0.3,0.6,0.6,1,0.8c-0.7,0.1-1,0.9-1.6,1.2c-0.5,0.3-1,0.7-1.6,1
		c-1-0.1-2-0.4-3-0.8c0.4,0.3,0.7,0.7,0.9,1.2c0.2,0,0.4,0,0.5,0c0.3,0.2,0.6,0.4,0.9,0.6c-1,0-2,0.5-3,0.2
		c-0.4-0.1-0.9-0.1-1.3,0.1c0.2,0.3,0.4,0.6,0.6,0.9c0.8,0.6,1.6,1.3,2.3,2.1c-1.4-0.6-2.4-1.9-4-2.1c-2-0.1-3.9,0.2-5.8,0.8
		c-0.7,0.1-1.2,0.6-1.8,0.8c0.3,0.3,0.7,0.5,1,0.8c-0.6-0.1-1.2-0.6-1.9-0.3c-0.6,0.3-1.4,0.2-2.1,0.4c-0.8,0.2-1.6,0.6-2.3,1h1
		c-0.6,0.4-1.3,0.7-1.9,0.9c-0.2,0.1-0.4,0-0.6-0.1l-0.6,0.2c-0.3-0.2-0.7-0.2-1.1-0.2c-2.2,0.5-4.4,1.2-6.6,1.7
		c-0.9,0.1-1.8,0.5-2.7,0.7c-1.9,0.5-3.7,1.1-5.5,1.6c-1.4,0.3-2.7,0.7-4,1.3c1.1-0.2,2.2-0.6,3.4-0.7c-0.8,0.5-1.7,0.8-2.5,1.1
		c-2,0.7-4,1.2-6,2c-0.9,0.6-1.9,1-3,1.2c0.8-0.7,1.9-0.6,2.7-1.3c-1.1,0.2-2.3,0.5-3.4,0.9l-0.1,0.3l-0.1-0.3
		c-0.7,0.2-1.4,0.3-2.1,0.6c-2.5,0.9-5.1,1.8-7.7,2.7v-0.3c-0.3,0.1-0.6,0.2-0.9,0.3l-0.1,0.4c-0.2-0.1-0.3-0.2-0.5-0.3
		c0,0.1,0.1,0.3,0.1,0.4c-1.6,0.3-3.2,1.1-4.8,1.4l-0.2-0.1h-0.2c0,0.1,0,0.3,0,0.3c-0.5,0.1-1,0.1-1.4,0.2c-0.5,0.2-1,0.3-1.5,0.4
		c-0.5-0.4-0.9,0.2-1.3,0.4c-0.1-0.2-0.3-0.3-0.5-0.2c-0.8,0-1.6,0.2-2.3,0.5v-0.4l-0.8-0.1c-0.2,0.1-0.5,0.2-0.7,0.3
		c-0.3-0.2-0.7-0.4-1-0.6c-0.6,0.1-1.2,0.3-1.8,0.4c0.1-0.2,0.3-0.4,0.4-0.5c-0.5-0.1-1,0.2-1.4,0.3c-0.6,0.2-1.3,0.3-1.9,0.4
		c-0.8,0.3-1.7,0.5-2.6,0.6l-0.2-0.5c-1.2,0.3-2.4,0.3-3.5,0.6c-0.1,0.2-0.3,0.3-0.4,0.5c-0.9,0.3-1.7-0.2-2.6-0.1
		c0-0.2,0-0.4,0-0.5c-0.3-0.1-0.5-0.4-0.6-0.7c0.2-0.2,0.5-0.4,0.7-0.6c-1,0.2-1.9,0.7-2.9,0.9c2.1-0.8,4.2-1.7,6.2-2.7
		c0.2-0.2,0.5-0.4,0.8-0.5c0.1-0.2,0.2-0.3,0.3-0.5l0.3,0.3l0.6-0.3l-0.4-0.5c-0.4,0.1-0.7,0.3-1.1,0.5c-1.4,0.7-2.8,1.3-4.3,1.7
		c0-0.3-0.1-0.6-0.1-0.8c0.3-0.1,0.6-0.3,0.8-0.6c0-0.3-0.5-0.2-0.7-0.3c0.3-0.2,0.6-0.3,0.8-0.5l0.1,0.4c1-0.5,2.1-0.9,3.2-1.2
		c0-0.1,0-0.3,0-0.4c0.3-0.1,0.6-0.2,1-0.4l-0.7-0.5c0.6-0.8,1.4-1.5,2.4-2l-0.3-0.3l0.3-0.1v0.4c0.9-0.5,1.7-0.9,2.6-1.3
		c0-0.1,0-0.2,0-0.3l-0.8,0.2c0.7-0.6,1.5-1,2.4-1.2c0-0.1,0-0.3,0-0.3c0.3-0.1,0.5-0.3,0.8-0.4c0,0.2,0.2,0.4,0.1,0.6
		c-0.2,0.2-0.5,0.2-0.8,0.2l0.3,0.1c-0.7,0.3-1.3,0.6-2,0.9l0.3,0.2c1.6-0.7,3.1-1.5,4.7-2.3c0-0.1-0.1-0.2-0.1-0.3l0.4,0.2
		c1.1-0.5,2.2-0.9,3.3-1.4c-0.4,0.1-0.9,0.2-1.3,0.3c0-0.3,0.1-0.5,0.2-0.7c0,0.2,0.1,0.4,0.1,0.6c1-0.4,1.9-0.8,2.9-1.2l-0.5,0.3
		c1.2-0.4,2.4-0.9,3.5-1.5c-0.7,0.2-1.3,0.4-1.9,0.6c0.7-0.7,1.5-1.3,2.3-1.9c2.3-1.2,4.8-2.1,7.1-3.2c0.8-0.5,1.8-0.7,2.6-1.1
		c0.7-0.3,1.4-0.7,2-1.1c0.3-0.2,0.1-0.5,0-0.7c0.1-0.2,0.2-0.4,0.2-0.6c-0.6-0.1-1.3-0.2-1.9-0.3c0.6-0.1,1.3,0,1.9-0.1
		c0.6-0.4,1.2-0.7,1.9-0.8c-1.2-0.1-2.5,0-3.8-0.1c1.2-0.2,2.5-0.1,3.7-0.3l0.2-0.3c1-0.1,1.9,0,2.9-0.1c0.5-0.1,0.9-0.3,1.4-0.6
		c0.4-0.1,0.8-0.1,1.2-0.2c-0.9,0-1.9,0-2.8,0.1c-0.1-0.2-0.2-0.4-0.4-0.3c-1.2-0.1-2.4-0.1-3.6-0.1l0.3,0.5c-0.3-0.2-0.6-0.6-1-0.6
		c-1-0.1-2.1,0-3.1,0.2c-0.4,0-0.8,0-1.2-0.1c-0.4,0.1-0.8,0.1-1.3,0.2c-1.4,0-2.8,0-4.2,0.1c-0.4,0-0.7,0-1.1,0l0.3-0.3
		c-0.2,0-0.4,0-0.6,0l-0.1,0.4c-1,0.1-2.1,0.1-3.1,0c-0.4-0.2-0.9-0.3-1.4-0.3l1,0.3c-0.9,0.2-1.7,0.2-2.6,0.3
		c-1.5,0.1-2.9,0.2-4.4,0.2v0.1c1,0,1.8,0.5,2.8,0.5c0.5-0.1,0.9-0.1,1.4,0c0.8,0,1.5-0.1,2.3,0c-0.8,0.2-1.6,0.1-2.4,0.3
		c-0.6,0.1-1.3,0.2-1.9,0.3c0.3,0.1,0.8,0.3,1.3,0.3c-1.1,0.2-2.2,0.1-3.2,0.2c-1.3,0.1-2.5,0.2-3.8,0.3c-0.8,0-1.6,0.2-2.4,0.4
		c0.7,0.3,1.4,0.5,2.2,0.5c0,0.3-0.2,0.6-0.4,0.8c0.7,0.4,1.5,0.5,2.4,0.5c3.2,0.1,6.4,0.2,9.6,0.3c-1.3,0.1-2.5,0-3.8,0
		c-3,0-6.1-0.1-9.1,0c-0.6,0-1.1,0.3-1.7,0.4c-0.6,0.1-1-0.4-1.6-0.4c-1,0-2.1,0.2-3.1,0.3c-0.7,0-1.3,0.6-2.1,0.7
		c-0.8,0.2-1.7,0-2.4-0.5c-0.3-0.5,0.3-1,0.5-1.4c-0.8,0-1.6-0.1-2.4-0.2c1.7,0.2,3.5-0.1,5.2-0.6c-0.4-0.1-0.7-0.3-1-0.1
		c-1.1,0.4-2.3,0.5-3.4,0.5l0.2-0.6c-1.9,0-3.9,0.1-5.8,0.3c-1.1,0.1-2.2,0.1-3.3,0.1c-0.7,0-1.4-0.3-2.1-0.1c-1,0.1-2.1,0.4-3,0.8
		c1.1,0,2.1-0.1,3.2,0c-1.6,0.4-3.4,0.3-5,0.6c-1.2,0.3-2.5,0.3-3.7,0.5c-1.9,0.1-3.7,0.5-5.5,0.7c-3.9,0.6-7.8,1-11.6,1.8
		c1.5,0,2.9-0.3,4.4-0.4c4.8-0.5,9.5-1.1,14.3-1.3c-1.2,0.2-2.5,0.3-3.8,0.4c-3.1,0.3-6.2,0.6-9.3,1c-3.6,0.4-7.1,1-10.7,1.8
		c-0.5,0.2-1,0.4-1.5,0.4c-1.2,0-2.5,0.1-3.7,0.4c-2.5,0.5-5.1,0.8-7.7,0.9c-0.9,0-1.9-0.1-2.8-0.3c-0.7-0.3-1.4-0.6-2.1-0.9
		c-0.9-0.3-1.7-0.8-2.4-1.4c-0.2-0.2-0.5-0.5-0.5-0.8c0-0.7-0.1-1.3-0.2-2v-0.5c0-0.3,0.1-0.7,0.1-1c0.9-0.8,0-2.2,0.9-2.9
		c0.3-0.4,0.7,0.1,1,0c0.6-0.3,1-0.9,1.7-1c2-0.1,3.9-0.5,5.8-1.1c0.3-0.1,0.5-0.1,0.8-0.2c1.3-0.1,2.5-0.1,3.8-0.2
		c4.5-0.5,9-1,13.5-1.4c2.8-0.4,5.7-0.7,8.5-1c3.5-0.3,7-0.7,10.6-0.8c10.1-0.3,20.2-0.3,30.3-0.2c2.2,0.1,4.4,0.1,6.6-0.1
		c0.7-0.1,1.5,0.2,2.2,0.2c1.6,0.1,3.3,0.1,4.9-0.1c0.3-0.1,0.5,0.3,0.6,0.4c-0.6,0-1.2,0.1-1.8,0.2l0.8,0.3l0.3-0.3
		c1.4,0.1,2.8,0.1,4.2,0.1c1.3,0,2.6,0,4-0.1c0.4,0.1,0.8,0.1,1.1-0.1l-0.9-0.5c0.6,0.1,1.1,0.2,1.7,0.3c0-0.1,0-0.2,0-0.3l1.1-0.1
		l-0.4,0.3c1.6,0.1,3.2,0,4.7-0.2c0.7,0,1.3,0.1,1.9,0.2c0,0.1,0,0.3,0,0.4l0.1-0.5l0.4,0.4v-0.2h0.6c-0.6-0.3-1.2-0.5-1.8-0.7
		c0.4,0,0.7-0.1,1.1-0.1c-0.4,0-1-0.5-1.2,0c-1.6-0.2-3-0.9-4.6-1.1c-0.5-0.1-1-0.2-1.4-0.3c-0.3,0.1-0.6,0.1-0.8,0
		c-0.6-0.2-1.2-0.4-1.9-0.4l-0.4,0.2c-1.5-0.7-3.2-0.9-4.6-1.8v0.3l-0.4-0.1v-0.4l-0.7-0.1l0.3-0.3c-0.3,0.1-0.6,0.2-1,0.2l0.2-0.3
		c-0.3-0.1-0.6-0.2-0.9-0.1c0.1,0.2,0.2,0.3,0.4,0.5H261c0-0.1,0-0.3,0-0.4c-1.1-0.4-2.4-0.7-3.8-0.7c-0.3-0.3-0.6-0.5-1-0.7
		c-0.1,0.1-0.1,0.1-0.2,0.2c-0.2-0.3-0.5-0.5-0.8-0.6c-1.1-0.5-2.4-0.6-3.5-1c0.6,0.1,1.3,0.2,1.9,0.2c-1.1-0.6-2.3-0.5-3.4-1.1
		c0.4,0,0.9,0.1,1.4,0.1c-0.6-0.5-1.5-0.4-2.3-0.8s-1.8-0.2-2.5-0.8l0.5-0.3c-1.1-0.2-2.2-0.6-3.2-1.1c-0.8-0.5-1.8-0.8-2.7-0.9
		l-0.2-0.2c-0.7-0.3-1.3-0.6-2-0.7c0-0.2,0-0.4,0-0.7L240,8l0.2-0.3c0.4,0,0.7,0,1.1-0.1c0.3-0.1,0.4-0.4,0.6-0.6
		c-1.1-0.3-2.2-0.3-3.2-0.7c1.1,0,2.2,0.1,3.2,0.3c-0.1-0.1-0.2-0.3-0.3-0.4c0.6-0.1,1.1-0.2,1.7-0.1c0.9,0.2,1.8,0.4,2.7,0.5
		c0.4,0.1,0.8,0.1,1.2,0.1V6.6c-1.8-0.6-3.7-0.8-5.5-1.3c0.5,0.1,1.1,0.1,1.6,0.1c0.3,0.1,0.6,0.2,0.9,0.3c1.5,0.3,3,0.8,4.6,0.9
		c-0.2-0.2-0.4-0.4-0.6-0.6l-0.6-0.2c0.4-0.1,0.8-0.1,1.2-0.1c0,0.1,0,0.3,0,0.4c0.6,0.1,1.1,0.2,1.7,0.3c-0.1-0.2-0.2-0.4-0.2-0.6
		c-0.4,0-0.8-0.1-1-0.5c1,0,2-0.1,2.9-0.2c0,0.1,0,0.3,0,0.4c0.5-0.1,1,0,1.4,0.1c1.5,0.3,3,0.5,4.5,0.6c1,0.1,2,0.2,3,0.3V6.4
		c-1.6-0.2-3.2-0.5-4.8-0.6C255.5,5.7,254.7,5.8,254.1,5.1 M247.4,7c0.7,0.2,1.5,0.3,2.2,0.4C248.9,7,248.1,6.8,247.4,7 M264,7.4
		v0.2c0.5-0.1,1,0.3,1.5,0.3l0.3-0.2l0.2,0.2c0.6,0,1.1,0,1.7,0.2c0,0.2,0,0.4,0,0.6c0.2-0.1,0.3-0.2,0.5-0.3c0.1-0.2,0.1-0.5,0-0.7
		c-1-0.2-2-0.3-3-0.4C264.8,7.4,264.4,7.5,264,7.4 M250.4,7.7c0,0.2,0.1,0.3,0.3,0.1C250.7,7.6,250.6,7.5,250.4,7.7 M269.8,17.6
		c0.5,0.2,0.9,0.4,1.3,0.7c0.3-0.2,0.4-0.5,0.4-0.8c-0.3,0-0.6-0.1-0.8-0.1C270.4,17.7,270.1,17.6,269.8,17.6 M275.8,18.8
		c0,0.1,0,0.3,0,0.3c0.3,0,0.7,0.1,1.1,0C276.6,19,276.2,18.9,275.8,18.8 M270.2,19v0.2c-0.4,0-0.7-0.1-1.1-0.1
		c0.5,0.6,1.3,0.5,2,0.7c0-0.1,0.1-0.3,0.1-0.3c0.2,0,0.3,0,0.5-0.1c-0.2-0.1-0.4-0.1-0.7-0.1C270.8,19.2,270.5,19.1,270.2,19
		 M275.1,19.3c0.2,0.3,0.6,0.3,0.9,0.4C275.8,19.3,275.4,19.3,275.1,19.3 M271.6,19.7c0,0.2,0.1,0.3,0.3,0.1
		C271.9,19.7,271.7,19.6,271.6,19.7 M280.4,20.1L280.4,20.1 M274.6,20.2c0,0.2,0.2,0.2,0.3,0.1C274.9,20.1,274.8,20.1,274.6,20.2
		 M284.4,21.2L284.4,21.2 M280.5,22.1c-0.4,0.2,0.2,0.5,0.4,0.2C281,22.2,280.6,22.1,280.5,22.1 M269.2,23.4c0,0.3,0.6,0.2,0.6,0
		C269.7,23.3,269.4,23.3,269.2,23.4 M321.2,24.3c0.4,0.2,0.8,0.3,1.2,0.5C322.2,24.3,321.6,24.3,321.2,24.3 M322.7,25
		c0.2,0,0.4-0.1,0.6-0.2C323.1,24.6,322.7,24.8,322.7,25 M253.6,25.9c0.4,0.5,1.1,0.2,1.6,0c1.9,0.2,3.8,0.2,5.6,0
		c1.4,0,2.7-0.1,4.1-0.2c-1.4-0.2-2.9-0.1-4.3-0.1c-1.9,0-3.9-0.1-5.8,0C254.5,25.7,254,25.8,253.6,25.9 M248.9,26.1
		c-1,0.1-2,0.1-3,0.1c-0.1,0-0.5,0-0.3,0.2c1.5,0,2.9-0.2,4.3-0.2c0.3-0.1,0.7,0.1,0.8-0.2C250.2,26,249.6,26,248.9,26.1
		 M255.4,26.2C255.4,26.7,255.9,26,255.4,26.2 M244.6,26.4L244.6,26.4 M313.3,32c0,0.1,0.1,0.3,0.1,0.4l-0.3-0.2
		c-0.5,0-1,0.1-1.1,0.7c1.1-0.1,2.2-0.3,3.3-0.5c-0.3-0.3-0.7-0.5-1.2-0.6L313.3,32 M259,37.1c0.3,0,0.7,0.1,0.8-0.2
		C259.6,36.9,259.2,36.8,259,37.1 M306.1,36.9c-0.2,0.2-0.4,0.3-0.6,0.4c0.4-0.1,0.8-0.3,1.2-0.5C306.5,36.9,306.3,36.9,306.1,36.9
		L306.1,36.9z"/>
	<path id="Pfad_12" class="st0" d="M244.7,5.4"/>
	<path id="Pfad_13" class="st0" d="M247.2,16l0.4-0.2c0.6,0.1,1.2,0.4,1.8,0.7c2.1,0.6,4.1,1.3,6.2,1.9c-0.2,0-0.5,0-0.7-0.1
		c-2-0.5-4-1-6.1-1.5c-0.8-0.1-1.6-0.4-2.4-0.7C246.7,16,246.9,16,247.2,16z"/>
	<path id="Pfad_14" class="st0" d="M254.8,16C255.2,15.7,254.8,16.5,254.8,16z"/>
	<path id="Pfad_15" class="st0" d="M307.8,17.4c0.6,0,1.1,0.4,1.7,0.4c0.2,0.2,0.4,0.5,0.7,0.7c-0.2,0-0.5,0-0.6-0.2
		C309,18.1,308.4,17.8,307.8,17.4z"/>
	<path id="Pfad_16" class="st0" d="M306.6,18.4c0.5,0,1,0.2,1.5,0.4C307.6,18.7,307.1,18.6,306.6,18.4z"/>
	<path id="Pfad_17" class="st0" d="M274.8,26.8c0.4-0.1,0.9-0.2,1.4-0.2v0.1C275.7,26.8,275.3,26.8,274.8,26.8z"/>
	<path id="Pfad_18" class="st0" d="M272.7,26.7c0.4,0,0.8,0,1.2,0c-0.3,0.2-0.5,0.3-0.8,0.3L272.7,26.7z"/>
	<path id="Pfad_19" class="st0" d="M271.1,26.8c0.2-0.1,0.3,0.3,0.1,0.3C270.9,27.2,270.8,26.9,271.1,26.8z"/>
	<path id="Pfad_20" class="st0" d="M258.5,27C259,26.7,258.6,27.5,258.5,27z"/>
	<path id="Pfad_21" class="st0" d="M326.9,34.6h0.3l0.1,0.4h-0.4L326.9,34.6z"/>
	<path id="Pfad_22" class="st0" d="M193.2,36.8c1.3,0,2.5-0.1,3.8-0.2c-1.7,0.4-3.4,0.6-5.2,0.6c-0.2,0-0.5,0-0.7-0.1
		C191.8,36.9,192.5,36.8,193.2,36.8z"/>
	<path id="Pfad_23" class="st0" d="M323.3,37.1c0.2-0.2,0.4-0.3,0.6-0.5c0,0.1-0.1,0.3-0.1,0.4L323.3,37.1z"/>
	<path id="Pfad_24" class="st0" d="M302.5,39c1.4-0.3,2.7-0.6,4.1-0.6c-1,0.3-2.1,0.5-3.2,0.6c-0.8,0.2-1.7,0.3-2.5,0.3
		C301.5,39.2,302,39.1,302.5,39z"/>
	<path id="Pfad_25" class="st0" d="M243.7,43c0.5-0.4,1.2-0.5,1.7-1c0,0.1-0.1,0.4-0.2,0.5C244.8,42.7,244.3,43.5,243.7,43z"/>
	<path id="Pfad_26" class="st0" d="M242.7,43.5c0.5,0,0.9,0,1.4,0c-0.5,0.4-1.3,0.2-1.8,0.5l-0.6-0.2
		C242,43.8,242.4,43.7,242.7,43.5z"/>
	<path id="Pfad_27" class="st0" d="M239.2,44.4"/>
	<path id="Pfad_28" class="st0" d="M239,45.6c0.6-0.6,1.4-1,2.3-1.2c0.1,0.2,0.1,0.3,0.2,0.5c-0.4,0.2-0.9,0.4-1.3,0.5v-0.3
		C239.8,45.3,239.4,45.5,239,45.6z"/>
	<path id="Pfad_29" class="st0" d="M279.4,46c1.1-0.4,2.2-0.8,3.4-1.1c-1.6,0.8-3.3,1.4-5,1.9C278.3,46.5,278.8,46.2,279.4,46z"/>
	<path id="Pfad_30" class="st0" d="M240.1,45.9c0.5-0.2,1-0.4,1.4-0.6c-0.2,0.3-0.5,0.5-0.8,0.8C240.5,46,240.3,46,240.1,45.9z"/>
	<path id="Pfad_31" class="st0" d="M235.7,46.3c0.7,0,1.1-0.5,1.7-0.7c-0.2,0.3-0.6,0.5-1,0.5v0.3c-0.5-0.3-0.9,0.4-1.4,0.4
		C235.3,46.7,235.5,46.5,235.7,46.3z"/>
	<path id="Pfad_32" class="st0" d="M235.1,46.1c0.2-0.1,0.4,0.2,0.3,0.3C235.3,46.5,234.9,46.2,235.1,46.1z"/>
	<path id="Pfad_33" class="st0" d="M237.2,46.2c0.4-0.2,0.8-0.3,1.2-0.2c-0.3,0.2-0.8,0.3-0.9,0.8C237.3,47.1,237.1,46.4,237.2,46.2
		z"/>
	<path id="Pfad_34" class="st0" d="M236.7,46.6c0.1-0.2,0.6-0.1,0.4,0.2C237,47,236.5,46.9,236.7,46.6z"/>
	<path id="Pfad_35" class="st0" d="M271.3,48.9c1-0.4,2-0.8,3.1-1c-1,0.5-1.9,0.9-2.9,1.3c-0.5,0.3-1.1,0.4-1.7,0.5
		C270.2,49.3,270.7,49,271.3,48.9z"/>
	<path id="Pfad_36" class="st0" d="M234.9,49.7c0.4-0.2,0.7-0.3,1.1-0.3c-0.6,0.5-1.3,0.9-2.1,1c0.2-0.3,0.5-0.3,0.8-0.4L234.9,49.7
		z"/>
	<path id="Pfad_37" class="st0" d="M260.7,51.1c0.3-0.2,0.3,0.3,0.1,0.3C260.6,51.6,260.5,51.2,260.7,51.1z"/>
	<path id="Pfad_38" class="st0" d="M244.3,55.4c0.2-0.1,0.4-0.2,0.5-0.3c-0.2,0.3-0.4,0.5-0.5,0.7l0.2,0.1h-0.3l-0.3-0.3L244.3,55.4
		z"/>
	<path id="Pfad_39" class="st0" d="M258.8,55.3c0.4-0.1,0.8-0.2,1.2-0.2c-0.1,0.1-0.3,0.3-0.4,0.4C259.3,55.5,259,55.4,258.8,55.3z"
		/>
	<path id="Pfad_40" class="st0" d="M230.8,55.7c0-0.2,0.1-0.3,0.3-0.1C231.1,55.8,231,55.8,230.8,55.7z"/>
</g>
<g class="st1">
	<path class="st2" d="M5.5,55.7c-0.3,0-0.6-0.2-0.8-0.6c-0.4-0.6-0.6-1-0.6-1.4c0-0.3,0.2-0.6,0.7-0.9c3.3-2.2,13.3-8.7,29.8-19.5
		c10.1-6.7,16.3-12,18.5-15.9c0.5-1,0.8-1.8,0.8-2.6c0-1.1-0.6-2.1-1.7-2.8c-0.5-0.3-0.9-0.6-1.5-0.8c-2.4-1.1-4.9-1.6-7.5-1.6
		c-0.5,0-1.1,0-1.6,0.1c-0.7,0-1.5,0.1-2.4,0.1s-1.7,0.1-2.4,0.2c-0.7,0.1-1.5,0.3-2.2,0.4c-1.8,0.3-3.7,0.6-5.5,0.9
		c-1.1,0.2-2.2,0.5-3.3,0.9c-4.9,1.6-8.5,3.2-10.8,4.9c-0.7,0.5-1,1-1,1.6c0,0.4,0.1,0.8,0.4,1.3c0.5,0.9,0.7,1.3,0.7,1.4
		s-0.1,0.2-0.3,0.2h-0.1c-0.9-1.1-1.6-2.3-2-3.6c-0.1-0.4-0.2-0.7-0.2-1c0-0.6,0.3-1.1,1-1.6c1.8-1.3,3.6-2.4,5.7-3.1
		c3.3-1.4,6.7-2.5,10.2-3.3c3.7-0.8,7.5-1.3,11.2-1.5c0.5,0,0.9,0,1.3,0.1c0.2,0,0.4,0.1,0.7,0.1c2.2,0,4.2,0.3,5.9,0.8
		c2.6,0.7,4.6,2.2,5.9,4.6c0.6,1.2,0.9,2.4,1,3.7c0,0.8-0.2,1.5-0.5,2.1c-1,1.8-2.2,3.5-3.7,4.9c-2.9,3-6.7,6-11.2,9
		c-0.1,0.1-0.1,0.1-0.2,0.2c-0.1,0-0.5,0.3-1.3,0.9c-0.9,0.7-1.8,1.3-2.7,1.9c-1.1,0.7-2.1,1.4-3,2.1c-1.3,1-2.1,1.6-2.4,1.7
		c-0.9,0.5-1.9,1.1-3.2,2c-0.6,0.5-1.3,0.9-2,1.3c-0.2,0.1-0.6,0.4-1,0.7c0,0,0,0,0,0.1V44c0.1,0.1,0.2,0.1,0.3,0.1
		c0.4-0.1,0.9-0.2,1.3-0.4c4.8-1.7,9.7-3,14.7-3.9c3.1-0.5,5.9-0.8,8.4-0.8c1.3,0,2.7,0.3,4.1,0.8c0.6,0.2,1.2,0.6,1.7,1.2
		c0.2,0.2,0.3,0.4,0.3,0.5c0,0.2-0.1,0.3-0.3,0.3c-0.1,0-0.3-0.1-0.6-0.2c-1-0.4-2-0.7-3-0.7c-0.4,0-0.7,0-1.1,0.1
		c-0.7,0.1-1.4,0.1-2.1,0.1c-1.9,0.1-3.8,0.3-5.6,0.7l-2,0.4c-1.2,0.2-2.6,0.6-4.3,1.1c-6.8,1.9-13.4,4.4-19.7,7.4
		c-2.6,1.2-5.2,2.6-7.7,4C6.8,55.3,5.9,55.7,5.5,55.7z"/>
	<path class="st2" d="M56,46.9c-0.4,0-0.7-0.1-1.1-0.4c-0.9-0.6-1.4-1.4-1.4-2.2c0-0.3,0.1-0.7,0.2-1.1c0.3-1,0.6-1.9,1-2.8
		c1.4-2.8,2.9-5.7,4.3-8.5c0.2-0.4,0.4-0.6,0.7-0.6c0.2,0,0.3,0.1,0.5,0.2c0.7,0.5,1.1,0.9,1.1,1.3c0,0.2-0.1,0.4-0.2,0.6
		c-0.4,0.9-0.9,1.7-1.3,2.3c-0.7,1.1-1.5,2.5-2.3,4.2c-0.8,1.5-1.3,2.7-1.6,3.7c-0.1,0.2-0.1,0.3-0.1,0.5c0,0.1,0.1,0.3,0.2,0.3
		c0.1,0.1,0.2,0.1,0.4,0.1c0.2,0,0.4-0.1,0.7-0.4c0.6-0.5,1.2-1,1.8-1.5c3.8-3.8,7.8-7,12-9.8c0.4-0.3,0.9-0.5,1.3-0.8
		c0.3-0.2,0.7-0.4,1-0.4c0.4,0,0.8,0.2,1.2,0.6c0.2,0.3,0.4,0.6,0.4,0.9c0,0.2-0.1,0.5-0.2,0.7c-2.1,4-3.5,7.7-4,11.2
		c-0.1,0.3-0.2,0.5-0.4,0.5c-0.1,0-0.3-0.1-0.4-0.2c-0.4-0.3-0.7-0.8-0.7-1.3v-1.8c0.2-1.5,0.5-3,1.1-4.4c0.3-0.9,0.5-1.5,0.5-1.6
		c0-0.1,0-0.1,0-0.2s-0.1-0.1-0.1-0.2c-0.1,0-0.1-0.1-0.2-0.1c-0.3,0-0.7,0.2-1.2,0.6c-1.4,1.1-2.6,2-3.6,2.8
		c-0.8,0.7-1.6,1.4-2.3,2.1c-0.7,0.7-1.1,1.1-1.3,1.2c-0.9,0.8-1.7,1.6-2.6,2.5c-0.7,0.7-1.6,1.2-2.5,1.6
		C56.5,46.8,56.2,46.9,56,46.9z"/>
	<path class="st2" d="M76.4,48.5c-0.1,0-0.4,0-0.9-0.1c-0.5-0.1-0.9-0.5-1.3-1.2c-0.1-0.3-0.2-0.6-0.2-0.9c0-0.6,0.2-1.2,0.5-1.9
		c1.9-3.9,4-8.5,6.4-13.7c0.5-1.2,0.9-2,1.1-2.3c0.3-0.5,0.7-0.8,1.1-0.8c0.3,0,0.6,0.1,0.9,0.3c0.3,0.2,0.5,0.5,0.5,0.8
		c0,0.2-0.1,0.4-0.2,0.6c-1.1,2-3.2,6.2-6.2,12.6c-0.6,1.1-0.9,1.8-0.9,2c-0.2,0.3-0.3,0.6-0.3,1c0,0.2,0.1,0.3,0.3,0.3h0.1
		c0.4-0.2,0.7-0.5,1-0.9c0.8-0.9,1.6-1.9,2.3-2.7l3.6-4.3c1.1-1.2,2.2-2.4,3.5-3.4c0.9-0.7,1.6-1.1,2.2-1.1c0.3,0,0.7,0.1,1,0.3
		c0.6,0.2,0.9,0.6,0.9,1.1S91.2,36,90,38.4c-0.7,1.3-1.2,2.6-1.5,3.8c-0.1,0.3-0.1,0.5-0.1,0.7c0,0.1,0,0.2,0.1,0.2
		c0,0.1,0.1,0.1,0.1,0.2c0.1,0,0.1,0.1,0.2,0.1c0.2,0,0.7-0.3,1.3-0.9c3.1-3.4,5.2-5.7,6.2-6.7c0.8-0.8,1.5-1.2,2-1.2
		c0.2,0,0.5,0.1,0.8,0.2c0.7,0.3,1,0.8,1,1.6v0.8l0,0V38c0,1.4,0.6,2.2,1.8,2.5c0.1,0,0.2,0.1,0.3,0.2c0.1,0.1,0.1,0.2,0.1,0.2
		c0,0.1-0.1,0.2-0.1,0.2c-0.1,0-0.2,0.1-0.5,0.1c-0.3,0-0.6-0.1-0.9-0.2c-1-0.5-1.9-1.3-2.5-2.4c-0.1-0.2-0.2-0.4-0.4-0.6
		c-0.1-0.2-0.3-0.3-0.5-0.3s-0.3,0.1-0.5,0.3c-1.6,1.6-3.1,3.3-4.6,5.3c-0.7,0.9-1.6,1.7-2.6,2.3c-0.4,0.2-0.7,0.3-1.1,0.3
		s-0.9-0.1-1.3-0.4c-1-0.6-1.5-1.3-1.5-2.3c0-0.7,0.5-2.1,1.4-4.4c0.2-0.2,0.2-0.5,0.2-0.7c0-0.1-0.1-0.3-0.3-0.4
		c-0.1,0-0.2-0.1-0.3-0.1c-0.1,0-0.2,0-0.3,0.1c-0.2,0.1-0.4,0.3-0.4,0.4c-0.7,0.7-1.2,1.3-1.5,1.8c-0.5,0.7-1,1.4-1.6,2
		c-0.3,0.3-0.6,0.7-0.9,1c-2.3,2.9-3.8,4.6-4.4,5.2C77.6,48.3,77,48.5,76.4,48.5z"/>
	<path class="st2" d="M118.4,55.7L118.4,55.7c-1.2-0.2-1.8-0.9-1.9-1.9v-0.6c0-1.1,0.4-2.6,1.3-4.7c1.3-3.1,1.9-4.8,1.9-4.9
		c0-0.3-0.1-0.4-0.4-0.4s-0.6,0.1-1,0.2c-1.9,0.5-3.8,1.1-5.7,1.7c-1.6,0.6-2.4,0.8-2.7,0.9c-0.5,0-0.9-0.2-1.3-0.6
		c-0.3-0.3-0.4-0.7-0.4-1s0.1-0.6,0.2-0.7c0.1-0.1,0.6-0.4,1.4-0.6c0,0,0.4-0.1,1-0.3c3.3-1,6.5-2.2,9.7-3.4
		c1.1-0.4,1.9-1.2,2.5-2.3c2.7-5.1,5.2-9.8,7.7-14.1c1.3-2.2,2.2-4,2.9-5.5c0.9-1.9,1.9-3.7,3-5.5c1.3-2.2,2-3.5,2-3.7
		c0-0.1,0-0.2-0.1-0.3c-0.1-0.2-0.3-0.3-0.5-0.3c-0.1,0-0.8,0.2-2.2,0.5c-1.1,0.2-2.2,0.5-3.2,0.7c-0.9,0.1-1.7,0.4-2.5,0.7
		c-0.8,0.3-1.6,0.6-2.4,1c-2.1,0.8-4.2,1.7-6.2,2.7c-1.4,0.4-2.8,1.3-4.2,2.3c-0.9,0.7-1.4,1.2-1.5,1.5c0,0.2,0,0.3,0,0.3
		c0,0.3,0.1,0.6,0.3,1c0.1,0.2,0.1,0.3,0.1,0.4l0,0c0,0-0.1,0.1-0.2,0.2c0,0,0,0-0.1,0h-0.1c-1.1-0.8-1.6-1.9-1.7-3.3
		c0-0.6,0.3-1,0.9-1.4c0.5-0.5,0.9-0.9,1.5-1.3c7.6-5.2,17.8-8.3,30.7-9.5c3-0.3,6.3-0.5,10-0.5c12.4,0,19.5,2.3,21.1,7
		c0.2,0.6,0.3,1.2,0.3,1.8c0,1.5-0.7,2.7-2,3.6l-1.4,1c-1,0.8-1.9,1.4-2.7,1.8c-2.8,1.9-5.9,3.4-9,4.8c-0.8,0.3-2.4,1-4.8,2.1
		c-0.2,0-0.3,0.1-0.4,0.2c-0.8,0.7-2.1,1.3-4,1.8c-1.2,0.4-2.2,0.8-3,1.3c-1.6,1-3.4,1.7-5.2,2.3c-0.7,0.2-1.3,0.5-1.9,0.8
		c-0.9,0.5-1.9,0.9-2.9,1.2c-0.9,0.3-1.9,0.7-3,1.3c-0.5,0.3-1.1,0.5-1.6,0.7c-0.8,0.4-1.7,0.8-2.5,1.2c-0.4,0.2-0.9,0.4-1.3,0.5
		c-0.9,0.2-1.3,0.5-1.3,0.8c0,0.2,0.1,0.3,0.2,0.3s0.3,0.1,0.6,0.1c1.9-0.3,4.2-0.5,7-0.5c1.1-0.1,2.2-0.1,3.3-0.1
		c6.5,0,11.3,0.9,14.2,2.6c1,0.6,1.8,1.5,2.2,2.6c-1-0.7-2-1.2-3.1-1.5c-1.1-0.3-2.2-0.6-3.3-0.8l-1.4-0.3c-1.1-0.2-2.2-0.3-3.4-0.3
		h-0.8c-0.5,0-1.1,0-1.8,0c-2.7,0-5.9,0.1-9.7,0.3c-0.9,0-1.6,0.1-2.3,0.3c-5.2,0.8-7.9,1.2-8.1,1.3c-1.3,0.2-2.2,1-2.7,2.2
		l-0.8,1.9c-1.5,3.1-2.4,5.6-2.9,7.6c-0.2,0.8-0.3,1.3-0.3,1.5s0.1,0.6,0.2,1.1C118.8,55.6,118.6,55.7,118.4,55.7z M127.4,36
		c2.3-0.8,8.8-3.5,19.3-8.3c10.5-4.5,17.1-7.5,20-9c2.7-1.3,5.5-3,8.4-5.1c0.9-0.6,1.6-1.4,2.1-2.3c0.2-0.3,0.3-0.6,0.3-0.9
		c0-0.7-0.6-1.3-1.8-2c-1.9-1.1-3.9-1.8-6.1-2.1c-0.8-0.1-1.6-0.2-2.4-0.3c-1.4-0.2-2.8-0.4-4.2-0.4c-2.5-0.1-4.1-0.2-5-0.2
		c-0.8,0-1.7,0-2.5,0h-2.4c-1.4,0-3.3,0.2-5.5,0.4c-1,0.1-1.9,0.2-2.8,0.3c-1.7,0.2-2.5,0.4-2.5,0.7v0.5c0,0.6-0.2,1.1-0.5,1.7
		c-1.1,2.3-2.3,4.5-3.6,6.6c-0.9,1.4-1.6,2.7-2.3,4c-0.7,1.2-3.2,5.7-7.7,13.5c-0.7,1.3-1.1,2.2-1.2,2.5C127,35.9,127.1,36,127.4,36
		z"/>
	<path class="st2" d="M166.6,48.5h-0.3c-1.7,0-3.1-0.6-4.3-1.8c-1-1.2-1.6-2.5-1.6-3.9c0-1,0.3-2.1,0.8-3.3c1.1-2.5,2.5-4.7,4.4-6.7
		c2.5-2.7,4.6-4.5,6.4-5.2c0.3-0.1,0.7-0.2,1-0.2c0.8,0,1.5,0.3,2,1c0.3,0.3,0.4,0.7,0.4,1.2c0,1.3-0.8,3-2.5,5
		c-0.4,0.4-1.2,1.3-2.4,2.8c-0.9,1-1.7,1.5-2.6,1.5c-0.6,0-1.2-0.2-2-0.6c-0.3-0.2-0.5-0.3-0.7-0.3c-0.5,0-1.2,1.1-2,3.3
		c-0.3,0.9-0.5,1.8-0.5,2.9c0,2,0.7,3,2.2,3c1,0,2.1-0.3,3.1-0.9c2.3-1.2,4.5-2.6,6.6-4.2c0.2-0.1,0.3-0.2,0.5-0.4
		c0.9-0.8,1.7-1.2,2.4-1.4c0.2,0,0.2,0.1,0.2,0.2c0,0.3-0.1,0.5-0.2,0.7c-0.4,0.4-0.9,0.8-1.3,1.3c-0.5,0.6-1,1.1-1.6,1.5
		c-0.7,0.5-1.5,1-2.2,1.6c-1.4,1.1-2.9,1.9-4.5,2.6C167.7,48.4,167.2,48.5,166.6,48.5z M166.6,37.4c0.5,0,1.2-0.4,1.9-1
		c1.7-1.5,3.1-3.2,4.3-5c0.3-0.4,0.5-0.9,0.6-1.5c-0.1-0.2-0.2-0.3-0.5-0.3h-0.1c-0.7,0.3-1.3,0.7-1.8,1.2c-1.7,1.6-3.3,3.3-4.7,5.1
		c-0.3,0.4-0.4,0.7-0.4,0.9C165.8,37.2,166.1,37.4,166.6,37.4z"/>
	<path class="st2" d="M175.8,46.4c-0.9,0-1.5-0.5-1.9-1.4c-0.1-0.3-0.2-0.5-0.2-0.8c0-0.5,0.2-0.9,0.7-1.3c1.8-1.6,4.1-3.2,6.8-4.9
		c0.5-0.3,0.7-0.6,0.7-1c0-0.2,0-0.4-0.1-0.6c-0.1-0.1-0.1-0.3-0.1-0.5c0-0.3,0.2-0.4,0.4-0.4c0.4,0,0.9,0.1,1.3,0.2
		c0.2,0,0.4,0.1,0.5,0.1c0.5,0,1-0.2,1.4-0.5c1.1-0.9,1.8-1.5,2.2-1.8c0.4-0.3,0.6-0.6,0.6-0.9s-0.1-0.4-0.3-0.5
		c-0.6-0.3-1.3-0.4-2.1-0.4c-2.2,0.2-3.9,0.6-5,1c-0.2,0.1-0.4,0.1-0.6,0.1c-0.2,0-0.5-0.1-0.7-0.2c-0.4-0.2-0.5-0.6-0.5-1.2
		c0-0.3,0.1-0.5,0.3-0.6c0.1-0.1,0.4-0.2,0.7-0.3c1.5-0.4,3-0.7,4.6-0.7c0.8,0,1.5,0.1,2.2,0.2c1.3,0.2,2.3,0.9,2.9,2
		c0.2,0.4,0.3,0.7,0.3,1c0,0.4-0.1,0.8-0.4,1.2c-0.3,0.4-0.7,0.8-1,1.1c-0.6,0.5-0.9,1-0.9,1.5V37c0,0.4-0.2,0.6-0.6,0.6
		c-0.8,0-1.5,0.1-2.1,0.4c-0.6,0.3-1.2,0.6-1.7,1l-5,3.4c-0.6,0.4-0.9,0.7-0.9,0.8c0,0,0,0.1,0,0.3c0,0.1,0.1,0.1,0.3,0.2
		c0.3,0,0.6-0.1,0.9-0.2c0.1,0,0.2-0.1,0.3-0.1c4.1-1.3,7.1-1.9,9-1.9c0.7,0,1.1,0.3,1.1,0.7c0,0.1-0.1,0.2-0.2,0.3
		c-0.8,0.3-1.3,0.5-1.5,0.6c-2,0.5-3.9,1-5.8,1.7c-1,0.3-2,0.7-3,1C177.4,46.2,176.6,46.4,175.8,46.4z"/>
	<path class="st2" d="M197.3,48.5h-0.4c-1.7,0-3.1-0.6-4.3-1.8c-1-1.2-1.6-2.5-1.6-3.9c0-1,0.3-2.1,0.8-3.3c1.1-2.5,2.5-4.7,4.4-6.7
		c2.6-2.7,4.7-4.5,6.4-5.2c0.3-0.1,0.7-0.2,1-0.2c0.8,0,1.5,0.3,2,1c0.3,0.3,0.4,0.7,0.4,1.2c0,1.3-0.8,3-2.5,5
		c-0.4,0.4-1.2,1.3-2.4,2.8c-0.9,1-1.7,1.5-2.6,1.5c-0.6,0-1.2-0.2-2-0.6c-0.3-0.2-0.5-0.3-0.7-0.3c-0.5,0-1.2,1.1-2,3.3
		c-0.3,0.9-0.5,1.8-0.5,2.9c0,2,0.7,3,2.2,3c1,0,2.1-0.3,3.1-0.9c2.3-1.2,4.5-2.6,6.6-4.2c0.2-0.1,0.3-0.2,0.5-0.4
		c0.9-0.8,1.7-1.2,2.4-1.4c0.2,0,0.2,0.1,0.2,0.2c0,0.3-0.1,0.5-0.2,0.7c-0.4,0.4-0.9,0.8-1.3,1.3c-0.5,0.6-1,1.1-1.6,1.5
		c-0.7,0.5-1.5,1-2.2,1.6c-1.4,1.1-2.9,1.9-4.5,2.6C198.3,48.4,197.8,48.5,197.3,48.5z M197.2,37.4c0.5,0,1.2-0.4,1.9-1
		c1.7-1.5,3.1-3.2,4.3-5c0.3-0.4,0.5-0.9,0.6-1.5c0-0.2-0.2-0.3-0.4-0.3h-0.1c-0.7,0.3-1.3,0.7-1.8,1.2c-1.7,1.6-3.3,3.3-4.7,5.1
		c-0.3,0.4-0.4,0.7-0.4,0.9C196.4,37.2,196.7,37.4,197.2,37.4z"/>
	<path class="st2" d="M199,70.6c-0.1,0-0.3,0-0.3,0c-0.9-0.3-1.3-0.7-1.3-1.3c0-0.2,0.2-1,0.7-2.2c1-2.9,1.8-5.4,2.6-7.5
		c1.2-3.1,2.7-7.1,4.4-12c2.2-6,4-11.1,5.4-15.4c0.4-0.9,0.7-2,0.9-3.2c0.2-1.3,0.6-2,1.2-2c0.2,0,0.4,0.1,0.6,0.2
		c0.5,0.3,0.8,0.6,0.8,1c0,0.3-0.4,1.6-1.1,3.9c-0.6,1.9-1.2,3.8-1.7,5.7c-0.1,0.2-0.1,0.3-0.2,0.5c-0.3,0.3-0.4,0.6-0.4,0.8
		s0.1,0.4,0.2,0.7c0.4-0.1,0.8-0.4,1-1c0.3-0.6,1.4-2.2,3.5-4.9c3.6-4.7,6.5-7,8.7-7c0.9,0,1.8,0.3,2.6,1c0.9,0.6,1.3,1.8,1.3,3.5
		c0,1.8-0.5,3.7-1.5,5.6c-0.3,0.5-0.6,1.1-0.8,1.7c-1.3,3.1-3.3,5.1-6,6.3l-0.8,0.4c-0.8,0.4-1.6,0.5-2.4,0.5
		c-1.3,0-2.2-0.3-2.8-0.8c0,0-0.1-0.1-0.1-0.2c0-0.1,0.1-0.2,0.2-0.2c0.4,0.1,0.8,0.1,1.1,0.1c0.8,0,1.8-0.3,2.9-0.8
		c2.7-1.3,4.7-3.3,6-6c0.9-1.8,1.6-3.7,2.1-5.6c0.1-0.6,0.2-1.1,0.2-1.7c0-0.3,0-0.8-0.1-1.4c-0.2-0.6-0.5-0.9-1-0.9
		s-1.1,0.2-1.9,0.7c-2.4,1.6-4.3,3.5-5.8,5.9c-0.3,0.5-0.7,1-1.1,1.4c-0.7,0.7-1.4,1.7-2.2,3c-0.4,0.6-0.8,1.2-1.2,1.8
		c-0.8,1.1-1.4,2.1-2,3.2c-0.5,0.9-1,1.8-1.5,2.7c-0.7,1-1.3,2.1-1.9,3.3c-0.7,0.9-1.2,1.9-1.6,2.8c-0.3,0.7-1.9,5-4.8,12.7
		c-0.4,1.1-0.8,2.2-1,3.3C199.7,70,199.4,70.6,199,70.6z"/>
	<path class="st2" d="M230.5,57.9c-0.1,0-0.3,0-0.4-0.1c-1.2-0.9-1.8-2.1-1.9-3.6c0-0.4-0.1-0.8-0.1-1.2c0-2.1,0.9-5.5,2.8-10.1
		c1.4-3.8,3-7.5,4.7-11.2l1.2-2.7c0.9-2,2.2-4.6,4-8.1c0.5-1.1,0.8-1.7,0.8-1.8c0-0.3-0.2-0.5-0.6-0.5c-0.3,0-1.3,0.3-3.1,0.9
		c-1.4,0.5-2.9,1-4.3,1.6c-0.7,0.3-1.6,0.6-2.5,0.9c-0.6,0.2-1.1,0.3-1.5,0.3c-0.4,0-0.8-0.2-1.1-0.5c-0.3-0.3-0.5-0.7-0.5-1.2
		c0-0.3,0.2-0.5,0.5-0.6c2.5-0.7,4.3-1.2,5.1-1.5c3-1,6-1.9,8.9-2.7c0.9-0.2,1.6-0.7,2-1.5c1.3-2.2,2.6-4.4,4.1-6.6
		c0.5-0.9,1-1.3,1.4-1.3c0.2,0,0.4,0.1,0.7,0.3c0.4,0.3,0.7,0.6,0.7,1c0,0.3-0.1,0.6-0.4,0.9c-2.2,3.4-3.3,5.3-3.3,5.5
		c0,0.4,0.2,0.5,0.7,0.5c0.1,0,0.4,0,0.9-0.1c0.6,0,1.2-0.1,1.8-0.2c0.8-0.1,1.7-0.1,2.5-0.1c0.5,0,1.1,0,1.6,0.1c1.3,0,2,0.3,2,0.8
		c0,0.3-0.2,0.4-0.6,0.5l-2.2,0.3c-1.8,0.3-3.6,0.5-5.4,0.7c-0.6,0.1-1.2,0.2-1.8,0.4c-0.4,0.1-0.7,0.2-1.1,0.3
		c-0.5,0.1-0.8,0.4-1,0.8c-0.3,0.5-0.6,1.1-1,1.6c-0.5,0.9-1,1.8-1.4,2.9c-0.1,0.2-0.2,0.4-0.3,0.6c-1.4,2.5-2.7,5-3.8,7.6
		c-0.9,2-1.5,3.2-1.8,3.8c-0.7,1.3-1.7,3.7-3,7.2c-0.3,0.8-0.6,1.5-0.9,2.3c-1.2,2.8-2.1,5.7-2.6,8.5c-0.1,0.5-0.2,1.1-0.2,1.6
		c0,0.9,0.1,1.7,0.4,2.6c0,0.1,0.1,0.2,0.1,0.2c0,0.1,0.1,0.2,0.1,0.3s0,0.2,0,0.3v0.2C230.6,57.8,230.6,57.9,230.5,57.9z"/>
</g>
</svg>
