<svg xmlns="http://www.w3.org/2000/svg" width="33.749" height="31.501" viewBox="0 0 33.749 31.501">
  <g id="home" transform="translate(-1.125 -2.25)">
    <path id="Pfad_1" data-name="Pfad 1" d="M18.391,7.121a.563.563,0,0,0-.778,0L4.669,19.487a.563.563,0,0,0-.174.407l0,11.606a2.25,2.25,0,0,0,2.25,2.25H13.5a1.125,1.125,0,0,0,1.125-1.125V23.063a.563.563,0,0,1,.563-.563h5.625a.563.563,0,0,1,.563.563v9.563A1.125,1.125,0,0,0,22.5,33.751h6.754A2.25,2.25,0,0,0,31.5,31.5V19.894a.563.563,0,0,0-.174-.407Z" fill="#fff"/>
    <path id="Pfad_2" data-name="Pfad 2" d="M34.517,17.167l-5.259-5.032V4.5a1.125,1.125,0,0,0-1.125-1.125H24.758A1.125,1.125,0,0,0,23.633,4.5V6.75L19.561,2.856a2.307,2.307,0,0,0-3.118,0L1.488,17.166a1.147,1.147,0,0,0-.094,1.573,1.125,1.125,0,0,0,1.629.074L17.613,4.871a.563.563,0,0,1,.778,0L32.982,18.813a1.125,1.125,0,0,0,1.588-.031,1.153,1.153,0,0,0-.053-1.615Z" fill="#fff"/>
  </g>
</svg>
