<?xml version="1.0" encoding="UTF-8" ?>
<!DOCTYPE svg PUBLIC "-//W3C//DTD SVG 1.1//EN" "http://www.w3.org/Graphics/SVG/1.1/DTD/svg11.dtd">
<svg width="645pt" height="258pt" viewBox="0 0 645 258" version="1.1" xmlns="http://www.w3.org/2000/svg">
<g id="#ffffffff">
<path fill="#ffffff" opacity="1.00" d=" M 116.55 0.00 L 237.24 0.00 C 237.40 8.67 237.27 17.33 237.31 26.00 C 206.88 26.00 176.44 26.00 146.00 26.00 C 146.00 40.49 145.99 54.98 146.01 69.48 C 174.19 69.51 202.36 69.65 230.54 69.51 C 230.59 77.57 230.55 85.63 230.56 93.69 C 202.38 93.69 174.19 93.67 146.00 93.75 C 146.00 109.98 146.03 126.21 146.13 142.44 C 177.06 142.46 207.99 142.33 238.93 142.37 C 239.01 150.89 239.01 159.42 239.00 167.94 C 198.10 167.94 157.21 167.94 116.31 167.94 C 116.28 114.29 116.44 60.64 116.36 6.99 C 116.36 4.66 116.37 2.33 116.55 0.00 Z" />
<path fill="#ffffff" opacity="1.00" d=" M 309.68 0.00 L 334.76 0.00 C 340.54 -3.41 341.66 1.53 343.08 4.74 C 346.01 11.05 343.23 18.20 339.98 23.81 C 330.91 38.14 315.37 47.19 307.22 62.23 C 300.69 74.56 299.59 89.92 305.36 102.75 C 307.25 106.75 309.20 111.01 312.86 113.72 C 313.38 105.80 312.00 97.87 312.99 89.97 C 313.56 83.81 315.97 78.04 318.52 72.47 C 323.96 60.84 333.62 51.92 339.76 40.72 C 341.50 37.53 342.83 34.14 344.43 30.88 C 342.13 42.48 336.30 52.96 329.62 62.58 C 323.60 71.52 318.55 81.29 316.09 91.85 C 313.70 102.36 314.07 113.29 315.61 123.89 C 307.42 123.87 299.24 123.66 291.06 123.80 C 285.85 138.49 280.66 153.18 275.46 167.87 C 265.25 167.93 255.04 167.96 244.83 167.94 C 265.06 115.13 285.36 62.35 305.64 9.56 C 306.89 6.33 307.97 3.02 309.68 0.00 Z" />
<path fill="#ffffff" opacity="1.00" d=" M 405.70 0.00 L 541.42 0.00 C 541.88 8.66 541.50 17.33 541.63 26.00 C 523.90 26.00 506.17 26.00 488.44 26.00 C 488.34 73.31 488.39 120.63 488.38 167.94 C 478.50 167.94 468.62 167.94 458.75 167.94 C 458.81 120.62 458.82 73.31 458.68 25.99 C 441.00 26.19 423.31 25.97 405.62 26.00 C 405.66 17.33 405.53 8.67 405.70 0.00 Z" />
<path fill="#ffffff" opacity="1.00" d=" M 0.44 6.58 C 2.40 6.49 4.36 6.44 6.31 6.37 C 6.26 29.21 6.40 52.04 6.34 74.88 C 11.80 65.96 20.17 58.47 30.39 55.65 C 40.77 52.90 52.34 52.93 62.06 57.90 C 71.67 62.82 78.17 72.24 81.78 82.19 C 86.81 96.21 87.15 111.46 85.72 126.14 C 84.26 139.87 78.88 153.99 67.78 162.77 C 57.06 171.11 42.22 171.67 29.54 168.25 C 20.01 165.73 11.88 159.44 6.18 151.50 C 5.94 157.05 5.67 162.60 5.43 168.15 C 3.62 167.95 1.81 167.79 0.00 167.65 L 0.00 45.19 C 0.11 35.53 0.33 16.23 0.44 6.58 M 33.47 60.79 C 24.75 62.40 17.34 68.17 12.44 75.41 C 9.48 80.10 5.96 85.15 6.30 90.97 C 6.39 107.20 6.19 123.44 6.39 139.67 C 7.68 145.39 11.54 150.29 15.69 154.31 C 23.72 161.93 35.19 164.70 46.01 164.28 C 54.59 164.12 63.30 160.54 68.80 153.81 C 76.20 144.96 79.15 133.29 80.03 122.01 C 80.71 109.99 80.45 97.65 76.65 86.12 C 73.73 77.44 68.86 68.84 60.83 63.99 C 52.67 59.08 42.56 59.01 33.47 60.79 Z" />
<path fill="#ffffff" opacity="1.00" d=" M 561.43 21.00 C 561.44 16.15 561.40 11.30 561.47 6.44 C 563.43 6.44 565.40 6.43 567.38 6.43 C 567.37 11.29 567.37 16.14 567.38 21.00 C 565.39 21.00 563.41 21.00 561.43 21.00 Z" />
<path fill="#ffffff" opacity="1.00" d=" M 609.88 25.75 C 611.87 25.75 613.87 25.75 615.88 25.75 C 615.92 35.79 615.80 45.83 615.95 55.87 C 625.09 55.88 634.23 55.87 643.38 55.88 C 643.37 57.85 643.37 59.83 643.38 61.81 C 634.21 61.86 625.04 61.90 615.88 61.88 C 615.89 88.25 615.85 114.62 615.90 140.99 C 616.13 148.27 617.17 156.84 623.55 161.45 C 629.38 165.82 637.12 164.12 643.80 163.37 C 644.14 165.19 644.50 167.02 644.85 168.86 C 636.34 170.71 626.43 171.45 619.01 166.08 C 611.46 160.18 610.16 149.82 609.91 140.89 C 609.83 114.55 609.90 88.22 609.87 61.88 C 602.95 61.85 596.03 61.95 589.12 61.80 C 589.12 59.82 589.11 57.85 589.12 55.88 C 596.01 55.88 602.90 55.87 609.80 55.88 C 609.95 45.84 609.84 35.79 609.88 25.75 Z" />
<path fill="#ffffff" opacity="1.00" d=" M 358.87 45.78 C 364.88 62.15 372.01 78.13 377.08 94.83 C 386.48 119.20 395.88 143.57 405.27 167.94 C 394.67 167.94 384.07 167.95 373.47 167.93 C 368.26 153.24 363.03 138.56 357.81 123.88 C 344.87 123.84 331.94 123.92 319.00 123.91 C 319.72 118.91 321.73 114.00 325.37 110.42 C 332.38 103.46 339.80 96.80 345.67 88.79 C 354.84 76.55 359.87 61.10 358.87 45.78 Z" />
<path fill="#ffffff" opacity="1.00" d=" M 561.44 55.94 C 563.41 55.94 565.39 55.94 567.38 55.94 C 567.38 93.29 567.38 130.65 567.38 168.00 C 565.39 168.00 563.41 168.00 561.43 168.00 C 561.44 130.65 561.43 93.29 561.44 55.94 Z" />
</g>
<g id="#380000fe">
<path fill="#380000" opacity="1.00" d=" M 0.00 171.10 C 9.15 170.93 18.30 170.97 27.45 171.08 C 27.44 172.35 27.44 173.62 27.43 174.90 C 18.29 174.99 9.14 175.01 0.00 174.89 L 0.00 171.10 Z" />
<path fill="#380000" opacity="1.00" d=" M 67.36 171.08 C 77.01 170.95 86.67 170.96 96.32 171.08 C 96.32 172.35 96.31 173.62 96.31 174.89 C 86.67 175.01 77.02 175.00 67.38 174.89 C 67.37 173.62 67.37 172.35 67.36 171.08 Z" />
<path fill="#380000" opacity="1.00" d=" M 101.81 171.07 C 111.48 170.96 121.16 170.95 130.83 171.08 C 130.82 172.35 130.81 173.62 130.81 174.89 C 121.14 175.00 111.48 175.01 101.81 174.89 C 101.81 173.61 101.81 172.34 101.81 171.07 Z" />
<path fill="#380000" opacity="1.00" d=" M 272.43 171.08 C 282.35 170.96 292.27 170.96 302.19 171.07 C 302.18 172.34 302.19 173.61 302.19 174.89 C 292.27 175.01 282.36 175.00 272.44 174.89 C 272.43 173.62 272.43 172.35 272.43 171.08 Z" />
<path fill="#380000" opacity="1.00" d=" M 307.62 171.08 C 317.04 170.96 326.47 170.95 335.90 171.08 C 335.88 172.35 335.87 173.63 335.86 174.90 C 326.45 174.99 317.03 175.01 307.62 174.89 C 307.62 173.62 307.62 172.35 307.62 171.08 Z" />
<path fill="#380000" opacity="1.00" d=" M 341.31 171.08 C 350.96 170.96 360.62 170.95 370.28 171.08 C 370.29 172.35 370.31 173.61 370.33 174.88 C 360.65 175.00 350.98 175.02 341.30 174.86 C 341.30 173.60 341.30 172.34 341.31 171.08 Z" />
<path fill="#380000" opacity="1.00" d=" M 375.75 171.07 C 385.15 170.97 394.56 170.94 403.96 171.08 C 403.94 172.35 403.93 173.63 403.92 174.90 C 394.53 174.98 385.14 175.01 375.75 174.89 C 375.74 173.61 375.74 172.34 375.75 171.07 Z" />
<path fill="#380000" opacity="1.00" d=" M 409.36 171.08 C 419.56 170.96 429.76 170.96 439.96 171.08 C 439.94 172.35 439.93 173.62 439.92 174.90 C 429.74 174.99 419.56 175.01 409.37 174.89 C 409.36 173.62 409.36 172.35 409.36 171.08 Z" />
<path fill="#380000" opacity="1.00" d=" M 445.36 171.08 C 454.52 170.95 463.68 170.95 472.83 171.08 C 472.82 172.35 472.80 173.63 472.80 174.90 C 463.66 174.99 454.52 175.01 445.38 174.89 C 445.37 173.62 445.36 172.35 445.36 171.08 Z" />
<path fill="#380000" opacity="1.00" d=" M 478.23 171.08 C 487.90 170.95 497.58 170.96 507.25 171.07 C 507.25 172.34 507.25 173.61 507.25 174.88 C 497.59 175.01 487.92 174.99 478.26 174.89 C 478.24 173.62 478.23 172.35 478.23 171.08 Z" />
<path fill="#380000" opacity="1.00" d=" M 512.69 171.08 C 522.11 170.96 531.53 170.95 540.96 171.08 C 540.94 172.35 540.93 173.63 540.92 174.90 C 531.51 174.98 522.10 175.01 512.68 174.89 C 512.68 173.61 512.68 172.34 512.69 171.08 Z" />
<path fill="#380000" opacity="1.00" d=" M 546.37 171.08 C 556.28 170.95 566.20 170.96 576.12 171.07 C 576.12 172.34 576.12 173.61 576.13 174.89 C 566.21 175.01 556.29 175.01 546.37 174.89 C 546.36 173.62 546.36 172.35 546.37 171.08 Z" />
<path fill="#380000" opacity="1.00" d=" M 67.37 176.50 C 77.02 176.43 86.66 176.44 96.31 176.50 C 96.31 177.47 96.31 179.40 96.31 180.36 C 86.67 180.46 77.02 180.46 67.37 180.36 C 67.37 179.40 67.37 177.47 67.37 176.50 Z" />
<path fill="#380000" opacity="1.00" d=" M 101.82 176.50 C 111.46 176.44 121.10 176.45 130.75 176.49 C 130.75 177.78 130.76 179.07 130.76 180.36 C 121.11 180.47 111.46 180.46 101.81 180.36 C 101.81 179.40 101.82 177.46 101.82 176.50 Z" />
<path fill="#380000" opacity="1.00" d=" M 170.69 176.50 C 180.09 176.44 189.48 176.44 198.88 176.50 C 198.88 177.47 198.88 179.40 198.88 180.37 C 189.48 180.46 180.08 180.47 170.69 180.36 C 170.69 179.40 170.69 177.46 170.69 176.50 Z" />
<path fill="#380000" opacity="1.00" d=" M 204.31 176.50 C 213.98 176.44 223.64 176.44 233.31 176.50 C 233.31 177.47 233.31 179.40 233.31 180.36 C 223.64 180.46 213.98 180.46 204.31 180.36 C 204.31 179.40 204.31 177.47 204.31 176.50 Z" />
<path fill="#380000" opacity="1.00" d=" M 238.75 176.50 C 248.17 176.44 257.58 176.44 267.00 176.50 C 267.00 177.47 267.00 179.40 267.00 180.37 C 257.58 180.46 248.17 180.46 238.75 180.36 C 238.75 179.40 238.75 177.47 238.75 176.50 Z" />
<path fill="#380000" opacity="1.00" d=" M 272.44 176.50 C 282.35 176.45 292.27 176.44 302.18 176.50 C 302.18 177.47 302.18 179.40 302.19 180.37 C 292.27 180.45 282.35 180.47 272.44 180.36 C 272.44 179.40 272.44 177.47 272.44 176.50 Z" />
<path fill="#380000" opacity="1.00" d=" M 341.31 176.50 C 350.98 176.44 360.64 176.44 370.31 176.50 C 370.31 177.47 370.31 179.40 370.31 180.36 C 360.64 180.46 350.98 180.46 341.31 180.36 C 341.31 179.40 341.31 177.47 341.31 176.50 Z" />
<path fill="#380000" opacity="1.00" d=" M 375.75 176.50 C 385.15 176.44 394.54 176.44 403.94 176.50 C 403.94 177.47 403.94 179.40 403.94 180.37 C 394.54 180.46 385.15 180.47 375.75 180.36 C 375.75 179.40 375.75 177.47 375.75 176.50 Z" />
<path fill="#380000" opacity="1.00" d=" M 409.38 176.50 C 419.57 176.44 429.75 176.44 439.94 176.50 C 439.94 177.47 439.94 179.40 439.94 180.37 C 429.75 180.46 419.56 180.47 409.37 180.37 C 409.37 179.40 409.38 177.47 409.38 176.50 Z" />
<path fill="#380000" opacity="1.00" d=" M 445.37 176.50 C 454.52 176.44 463.67 176.44 472.82 176.50 C 472.82 177.47 472.81 179.40 472.81 180.37 C 463.66 180.46 454.52 180.47 445.37 180.36 C 445.37 179.40 445.37 177.47 445.37 176.50 Z" />
<path fill="#380000" opacity="1.00" d=" M 478.25 176.50 C 487.91 176.44 497.58 176.44 507.25 176.50 C 507.25 177.47 507.24 179.40 507.24 180.37 C 497.58 180.46 487.91 180.46 478.25 180.37 C 478.25 179.40 478.25 177.47 478.25 176.50 Z" />
<path fill="#380000" opacity="1.00" d=" M 512.69 176.50 C 522.11 176.44 531.52 176.44 540.94 176.50 C 540.94 177.47 540.94 179.40 540.94 180.37 C 531.52 180.46 522.11 180.47 512.69 180.36 C 512.69 179.40 512.69 177.47 512.69 176.50 Z" />
<path fill="#380000" opacity="1.00" d=" M 546.37 176.50 C 556.29 176.44 566.20 176.44 576.12 176.50 C 576.12 177.47 576.12 179.40 576.12 180.37 C 566.20 180.46 556.29 180.46 546.37 180.37 C 546.37 179.40 546.37 177.47 546.37 176.50 Z" />
<path fill="#380000" opacity="1.00" d=" M 67.36 182.02 C 77.01 181.89 86.66 181.90 96.32 182.02 C 96.31 183.29 96.31 184.56 96.31 185.84 C 86.67 185.95 77.03 185.92 67.39 185.85 C 67.38 184.57 67.37 183.29 67.36 182.02 Z" />
<path fill="#380000" opacity="1.00" d=" M 101.81 182.02 C 111.49 181.90 121.16 181.89 130.83 182.02 C 130.82 183.29 130.81 184.57 130.80 185.84 C 121.13 185.92 111.47 185.95 101.81 185.83 C 101.81 184.55 101.81 183.28 101.81 182.02 Z" />
<path fill="#380000" opacity="1.00" d=" M 136.23 182.02 C 145.90 181.90 155.58 181.89 165.25 182.02 C 165.25 183.28 165.25 184.55 165.25 185.83 C 155.59 185.95 145.93 185.92 136.27 185.84 C 136.25 184.57 136.24 183.29 136.23 182.02 Z" />
<path fill="#380000" opacity="1.00" d=" M 204.29 182.02 C 213.97 181.88 223.64 181.90 233.32 182.02 C 233.31 183.29 233.31 184.56 233.31 185.83 C 223.65 185.94 213.99 185.93 204.33 185.84 C 204.31 184.57 204.30 183.29 204.29 182.02 Z" />
<path fill="#380000" opacity="1.00" d=" M 238.75 182.02 C 248.17 181.89 257.59 181.90 267.02 182.01 C 266.97 183.29 266.93 184.57 266.89 185.86 C 257.51 185.91 248.13 185.95 238.75 185.83 C 238.75 184.56 238.74 183.29 238.75 182.02 Z" />
<path fill="#380000" opacity="1.00" d=" M 272.42 182.02 C 282.34 181.89 292.27 181.90 302.19 182.02 C 302.18 183.28 302.18 184.56 302.19 185.83 C 292.27 185.95 282.36 185.93 272.45 185.84 C 272.44 184.57 272.43 183.29 272.42 182.02 Z" />
<path fill="#380000" opacity="1.00" d=" M 341.29 182.02 C 350.97 181.89 360.64 181.90 370.32 182.02 C 370.31 183.29 370.31 184.56 370.31 185.83 C 360.65 185.94 350.99 185.93 341.32 185.84 C 341.31 184.57 341.30 183.29 341.29 182.02 Z" />
<path fill="#380000" opacity="1.00" d=" M 409.36 182.02 C 419.56 181.90 429.76 181.89 439.96 182.02 C 439.94 183.30 439.92 184.57 439.91 185.85 C 429.74 185.93 419.56 185.94 409.39 185.84 C 409.37 184.57 409.36 183.29 409.36 182.02 Z" />
<path fill="#380000" opacity="1.00" d=" M 445.36 182.02 C 454.51 181.90 463.68 181.89 472.84 182.03 C 472.82 183.30 472.80 184.57 472.79 185.85 C 463.66 185.93 454.52 185.93 445.39 185.85 C 445.37 184.57 445.36 183.29 445.36 182.02 Z" />
<path fill="#380000" opacity="1.00" d=" M 478.23 182.02 C 487.90 181.89 497.58 181.90 507.25 182.02 C 507.25 183.29 507.24 184.56 507.25 185.83 C 497.59 185.94 487.92 185.93 478.26 185.84 C 478.24 184.57 478.23 183.29 478.23 182.02 Z" />
<path fill="#380000" opacity="1.00" d=" M 512.68 182.02 C 522.11 181.90 531.54 181.89 540.97 182.03 C 540.94 183.30 540.92 184.57 540.91 185.85 C 531.50 185.92 522.10 185.95 512.69 185.84 C 512.68 184.56 512.68 183.29 512.68 182.02 Z" />
<path fill="#380000" opacity="1.00" d=" M 546.36 182.02 C 556.28 181.89 566.20 181.90 576.13 182.02 C 576.12 183.29 576.12 184.56 576.12 185.83 C 566.21 185.95 556.30 185.93 546.39 185.84 C 546.37 184.57 546.36 183.29 546.36 182.02 Z" />
<path fill="#380000" opacity="1.00" d=" M 67.37 187.44 C 77.02 187.38 86.66 187.38 96.30 187.44 C 96.31 188.40 96.31 190.33 96.32 191.30 C 86.67 191.39 77.02 191.42 67.37 191.30 C 67.37 190.33 67.37 188.40 67.37 187.44 Z" />
<path fill="#380000" opacity="1.00" d=" M 101.82 187.44 C 111.49 187.38 121.15 187.37 130.82 187.44 C 130.82 188.41 130.81 190.34 130.81 191.30 C 121.14 191.40 111.48 191.40 101.81 191.30 C 101.81 190.34 101.82 188.40 101.82 187.44 Z" />
<path fill="#380000" opacity="1.00" d=" M 136.25 187.44 C 145.89 187.38 155.53 187.38 165.17 187.44 C 165.18 188.40 165.21 190.34 165.22 191.30 C 155.56 191.40 145.90 191.40 136.25 191.30 C 136.25 190.34 136.25 188.40 136.25 187.44 Z" />
<path fill="#380000" opacity="1.00" d=" M 341.31 187.44 C 350.97 187.38 360.62 187.38 370.27 187.44 C 370.29 188.41 370.32 190.33 370.33 191.30 C 360.66 191.41 350.98 191.40 341.31 191.30 C 341.31 190.33 341.31 188.40 341.31 187.44 Z" />
<path fill="#380000" opacity="1.00" d=" M 409.37 187.44 C 419.56 187.38 429.75 187.38 439.94 187.44 C 439.94 188.40 439.94 190.34 439.94 191.31 C 429.75 191.39 419.56 191.40 409.37 191.30 C 409.37 190.34 409.37 188.40 409.37 187.44 Z" />
<path fill="#380000" opacity="1.00" d=" M 445.37 187.44 C 454.52 187.38 463.67 187.37 472.82 187.44 C 472.82 188.41 472.81 190.34 472.81 191.30 C 463.66 191.40 454.52 191.41 445.37 191.30 C 445.37 190.33 445.37 188.40 445.37 187.44 Z" />
<path fill="#380000" opacity="1.00" d=" M 478.25 187.44 C 487.91 187.38 497.58 187.38 507.24 187.44 C 507.25 188.40 507.25 190.33 507.25 191.30 C 497.58 191.40 487.91 191.40 478.25 191.30 C 478.25 190.34 478.25 188.40 478.25 187.44 Z" />
<path fill="#380000" opacity="1.00" d=" M 512.70 187.44 C 522.11 187.38 531.53 187.38 540.94 187.44 C 540.94 188.40 540.94 190.34 540.94 191.30 C 531.52 191.40 522.10 191.41 512.68 191.30 C 512.69 190.33 512.69 188.40 512.70 187.44 Z" />
<path fill="#380000" opacity="1.00" d=" M 101.81 192.96 C 111.48 192.83 121.15 192.83 130.82 192.96 C 130.81 194.23 130.80 195.51 130.79 196.79 C 121.13 196.86 111.48 196.88 101.82 196.78 C 101.81 195.50 101.81 194.23 101.81 192.96 Z" />
<path fill="#380000" opacity="1.00" d=" M 136.24 192.96 C 145.88 192.82 155.53 192.84 165.17 192.96 C 165.19 194.23 165.20 195.51 165.22 196.78 C 155.57 196.87 145.92 196.86 136.27 196.79 C 136.25 195.51 136.25 194.23 136.24 192.96 Z" />
<path fill="#380000" opacity="1.00" d=" M 341.30 192.96 C 350.97 192.83 360.64 192.83 370.31 192.96 C 370.31 194.23 370.31 195.50 370.31 196.78 C 360.65 196.88 350.99 196.86 341.33 196.79 C 341.31 195.51 341.31 194.23 341.30 192.96 Z" />
<path fill="#380000" opacity="1.00" d=" M 409.37 192.96 C 419.56 192.83 429.76 192.83 439.95 192.96 C 439.93 194.23 439.92 195.51 439.91 196.79 C 429.74 196.86 419.56 196.86 409.39 196.79 C 409.38 195.51 409.37 194.23 409.37 192.96 Z" />
<path fill="#380000" opacity="1.00" d=" M 478.24 192.96 C 487.91 192.83 497.58 192.83 507.25 192.96 C 507.24 194.23 507.24 195.50 507.24 196.78 C 497.58 196.87 487.92 196.87 478.26 196.78 C 478.25 195.51 478.24 194.23 478.24 192.96 Z" />
<path fill="#380000" opacity="1.00" d=" M 512.69 192.96 C 522.11 192.84 531.53 192.82 540.95 192.96 C 540.93 194.23 540.92 195.51 540.91 196.79 C 531.50 196.86 522.10 196.88 512.69 196.78 C 512.68 195.50 512.68 194.23 512.69 192.96 Z" />
<path fill="#380000" opacity="1.00" d=" M 101.82 198.37 C 111.46 198.32 121.11 198.32 130.75 198.37 C 130.75 199.66 130.75 200.94 130.75 202.24 C 121.11 202.36 111.46 202.33 101.82 202.24 C 101.82 201.27 101.82 199.34 101.82 198.37 Z" />
<path fill="#380000" opacity="1.00" d=" M 478.25 198.37 C 487.92 198.32 497.58 198.32 507.25 198.37 C 507.25 199.34 507.25 201.27 507.25 202.24 C 497.58 202.34 487.91 202.34 478.25 202.24 C 478.24 200.95 478.24 199.66 478.25 198.37 Z" />
<path fill="#380000" opacity="1.00" d=" M 101.81 203.89 C 111.46 203.76 121.11 203.79 130.76 203.89 C 130.75 205.17 130.74 206.45 130.73 207.73 C 121.09 207.80 111.45 207.81 101.82 207.72 C 101.81 206.44 101.81 205.17 101.81 203.89 Z" />
<path fill="#380000" opacity="1.00" d=" M 101.81 209.31 C 111.46 209.26 121.11 209.26 130.76 209.31 C 130.75 210.59 130.75 211.88 130.75 213.17 C 121.11 213.28 111.46 213.28 101.81 213.17 C 101.81 211.88 101.81 210.60 101.81 209.31 Z" />
</g>
<g id="#6a0000ff">
<path fill="#6a0000" opacity="1.00" d=" M 32.88 171.01 C 42.57 171.03 52.26 170.93 61.94 171.06 C 61.94 172.35 61.94 173.65 61.94 174.94 C 52.25 174.96 42.56 174.97 32.88 174.94 C 32.88 173.62 32.88 172.31 32.88 171.01 Z" />
<path fill="#6a0000" opacity="1.00" d=" M 136.15 171.08 C 145.85 170.94 155.55 170.97 165.25 171.06 C 165.25 172.35 165.25 173.64 165.25 174.94 C 155.58 174.95 145.91 174.97 136.25 174.93 C 136.21 173.64 136.18 172.36 136.15 171.08 Z" />
<path fill="#6a0000" opacity="1.00" d=" M 170.62 171.07 C 180.04 170.93 189.46 171.03 198.88 171.00 C 198.88 172.31 198.88 173.62 198.88 174.94 C 189.46 174.96 180.04 174.97 170.62 174.93 C 170.62 173.64 170.62 172.35 170.62 171.07 Z" />
<path fill="#6a0000" opacity="1.00" d=" M 204.30 171.07 C 213.97 170.95 223.64 170.97 233.32 171.06 C 233.31 172.35 233.31 173.64 233.31 174.94 C 223.65 174.97 213.98 174.97 204.31 174.94 C 204.31 173.65 204.30 172.36 204.30 171.07 Z" />
<path fill="#6a0000" opacity="1.00" d=" M 238.75 171.06 C 248.16 170.96 257.58 170.96 267.00 171.06 C 267.00 172.35 267.00 173.64 267.00 174.94 C 257.58 174.96 248.17 174.96 238.75 174.94 C 238.75 173.64 238.74 172.35 238.75 171.06 Z" />
<path fill="#6a0000" opacity="1.00" d=" M 581.56 171.06 C 590.97 170.96 600.40 170.96 609.82 171.06 C 609.81 172.35 609.81 173.64 609.81 174.94 C 600.39 174.97 590.98 174.97 581.56 174.93 C 581.55 173.64 581.55 172.35 581.56 171.06 Z" />
<path fill="#6a0000" opacity="1.00" d=" M 32.88 176.50 C 42.56 176.44 52.25 176.44 61.94 176.50 C 61.94 177.47 61.94 179.40 61.94 180.36 C 52.25 180.48 42.56 180.48 32.88 180.36 C 32.88 179.39 32.88 177.47 32.88 176.50 Z" />
<path fill="#6a0000" opacity="1.00" d=" M 136.18 176.50 C 145.87 176.42 155.56 176.45 165.25 176.50 C 165.25 177.47 165.25 179.39 165.25 180.36 C 155.56 180.48 145.87 180.47 136.19 180.36 C 136.19 179.40 136.19 177.47 136.18 176.50 Z" />
<path fill="#6a0000" opacity="1.00" d=" M 307.63 176.51 C 317.04 176.43 326.46 176.44 335.88 176.50 C 335.88 177.47 335.87 179.40 335.87 180.36 C 326.46 180.47 317.04 180.48 307.63 180.36 C 307.63 179.39 307.63 177.47 307.63 176.51 Z" />
<path fill="#6a0000" opacity="1.00" d=" M 581.57 176.51 C 590.98 176.43 600.40 176.45 609.82 176.50 C 609.81 177.47 609.81 179.40 609.81 180.36 C 600.39 180.46 590.98 180.47 581.56 180.36 C 581.56 179.40 581.56 177.47 581.57 176.51 Z" />
<path fill="#6a0000" opacity="1.00" d=" M 32.87 182.01 C 42.56 181.87 52.25 181.95 61.94 181.96 C 61.94 183.26 61.94 184.57 61.94 185.88 C 52.25 185.90 42.57 185.90 32.88 185.88 C 32.88 184.58 32.87 183.29 32.87 182.01 Z" />
<path fill="#6a0000" opacity="1.00" d=" M 170.61 181.95 C 180.03 181.93 189.45 181.93 198.87 181.95 C 198.87 183.26 198.88 184.57 198.88 185.88 C 189.49 185.90 180.09 185.90 170.70 185.88 C 170.67 184.57 170.64 183.26 170.61 181.95 Z" />
<path fill="#6a0000" opacity="1.00" d=" M 307.62 182.01 C 317.04 181.90 326.47 181.89 335.89 182.01 C 335.88 183.30 335.87 184.59 335.87 185.88 C 326.45 185.90 317.04 185.91 307.63 185.87 C 307.62 184.58 307.62 183.29 307.62 182.01 Z" />
<path fill="#6a0000" opacity="1.00" d=" M 375.75 182.01 C 385.14 181.87 394.54 181.95 403.94 181.95 C 403.93 183.26 403.93 184.57 403.94 185.88 C 394.54 185.90 385.15 185.90 375.75 185.88 C 375.75 184.58 375.74 183.29 375.75 182.01 Z" />
<path fill="#6a0000" opacity="1.00" d=" M 581.57 181.95 C 590.99 181.96 600.41 181.86 609.83 182.01 C 609.81 183.30 609.81 184.59 609.81 185.88 C 600.39 185.91 590.97 185.91 581.56 185.87 C 581.55 184.56 581.56 183.26 581.57 181.95 Z" />
<path fill="#6a0000" opacity="1.00" d=" M 32.87 187.45 C 42.56 187.38 52.25 187.38 61.93 187.44 C 61.94 188.72 61.94 190.01 61.94 191.30 C 52.25 191.39 42.57 191.43 32.88 191.30 C 32.88 190.33 32.88 188.41 32.87 187.45 Z" />
<path fill="#6a0000" opacity="1.00" d=" M 170.62 187.45 C 180.04 187.37 189.45 187.37 198.87 187.44 C 198.87 188.72 198.87 190.01 198.88 191.30 C 189.46 191.43 180.05 191.40 170.63 191.30 C 170.63 190.33 170.62 188.41 170.62 187.45 Z" />
<path fill="#6a0000" opacity="1.00" d=" M 307.63 187.44 C 317.04 187.36 326.46 187.39 335.87 187.44 C 335.87 188.72 335.87 190.01 335.88 191.30 C 326.46 191.41 317.04 191.42 307.63 191.30 C 307.63 190.33 307.63 188.41 307.63 187.44 Z" />
<path fill="#6a0000" opacity="1.00" d=" M 375.75 187.45 C 385.14 187.35 394.54 187.40 403.93 187.43 C 403.93 188.72 403.93 190.01 403.94 191.30 C 394.54 191.39 385.15 191.43 375.76 191.30 C 375.75 190.33 375.75 188.41 375.75 187.45 Z" />
<path fill="#6a0000" opacity="1.00" d=" M 581.56 187.44 C 590.98 187.37 600.39 187.38 609.81 187.44 C 609.80 188.72 609.81 190.01 609.82 191.30 C 600.40 191.40 590.98 191.43 581.56 191.30 C 581.56 190.33 581.56 188.41 581.56 187.44 Z" />
<path fill="#6a0000" opacity="1.00" d=" M 204.31 187.44 C 213.98 187.37 223.64 187.37 233.31 187.44 C 233.31 188.41 233.31 190.33 233.31 191.30 C 223.64 191.42 213.97 191.42 204.31 191.29 C 204.31 190.33 204.31 188.41 204.31 187.44 Z" />
<path fill="#6a0000" opacity="1.00" d=" M 238.76 187.44 C 248.17 187.36 257.58 187.39 267.00 187.44 C 267.00 188.40 267.00 190.33 267.00 191.30 C 257.58 191.41 248.17 191.42 238.75 191.30 C 238.75 190.33 238.75 188.41 238.76 187.44 Z" />
<path fill="#6a0000" opacity="1.00" d=" M 272.36 187.45 C 282.30 187.36 292.24 187.39 302.18 187.44 C 302.18 188.40 302.18 190.33 302.18 191.30 C 292.28 191.41 282.37 191.41 272.47 191.30 C 272.44 190.33 272.39 188.41 272.36 187.45 Z" />
<path fill="#6a0000" opacity="1.00" d=" M 32.88 192.90 C 42.56 192.86 52.25 192.85 61.94 192.90 C 61.94 194.21 61.94 195.51 61.94 196.82 C 52.25 196.84 42.56 196.85 32.88 196.81 C 32.88 195.51 32.88 194.20 32.88 192.90 Z" />
<path fill="#6a0000" opacity="1.00" d=" M 170.63 192.95 C 180.04 192.83 189.46 192.83 198.88 192.95 C 198.88 194.23 198.88 195.52 198.88 196.81 C 189.46 196.84 180.04 196.84 170.62 196.81 C 170.62 195.52 170.62 194.23 170.63 192.95 Z" />
<path fill="#6a0000" opacity="1.00" d=" M 204.31 192.95 C 213.98 192.80 223.64 192.89 233.31 192.90 C 233.31 194.20 233.31 195.50 233.32 196.81 C 223.65 196.85 213.98 196.84 204.31 196.81 C 204.31 195.52 204.31 194.23 204.31 192.95 Z" />
<path fill="#6a0000" opacity="1.00" d=" M 238.75 192.90 C 248.17 192.86 257.58 192.86 267.00 192.90 C 266.99 194.20 266.99 195.51 267.00 196.82 C 257.58 196.84 248.16 196.85 238.75 196.81 C 238.75 195.50 238.75 194.20 238.75 192.90 Z" />
<path fill="#6a0000" opacity="1.00" d=" M 272.38 192.90 C 282.31 192.88 292.25 192.81 302.18 192.95 C 302.18 194.23 302.18 195.52 302.19 196.81 C 292.25 196.84 282.31 196.84 272.37 196.81 C 272.37 195.50 272.37 194.20 272.38 192.90 Z" />
<path fill="#6a0000" opacity="1.00" d=" M 307.63 192.90 C 317.05 192.88 326.46 192.81 335.88 192.95 C 335.87 194.23 335.87 195.52 335.88 196.81 C 326.46 196.84 317.04 196.85 307.62 196.81 C 307.62 195.50 307.62 194.20 307.63 192.90 Z" />
<path fill="#6a0000" opacity="1.00" d=" M 375.76 192.90 C 385.15 192.86 394.54 192.86 403.94 192.90 C 403.93 194.20 403.93 195.51 403.94 196.82 C 394.54 196.84 385.14 196.85 375.75 196.81 C 375.74 195.50 375.75 194.20 375.76 192.90 Z" />
<path fill="#6a0000" opacity="1.00" d=" M 445.38 192.95 C 454.52 192.83 463.67 192.83 472.81 192.94 C 472.81 194.23 472.81 195.52 472.82 196.81 C 463.67 196.85 454.52 196.85 445.37 196.81 C 445.37 195.52 445.37 194.23 445.38 192.95 Z" />
<path fill="#6a0000" opacity="1.00" d=" M 581.56 192.95 C 590.98 192.83 600.40 192.83 609.81 192.94 C 609.81 194.23 609.81 195.52 609.82 196.81 C 600.40 196.85 590.98 196.85 581.56 196.81 C 581.56 195.52 581.56 194.23 581.56 192.95 Z" />
<path fill="#6a0000" opacity="1.00" d=" M 170.62 198.38 C 180.04 198.30 189.46 198.32 198.87 198.37 C 198.87 199.66 198.87 200.94 198.88 202.23 C 189.46 202.34 180.04 202.37 170.63 202.23 C 170.63 201.27 170.62 199.35 170.62 198.38 Z" />
<path fill="#6a0000" opacity="1.00" d=" M 204.30 198.38 C 213.97 198.33 223.64 198.30 233.32 198.38 C 233.31 199.35 233.31 201.27 233.31 202.23 C 223.65 202.37 213.99 202.34 204.34 202.25 C 204.32 200.95 204.31 199.66 204.30 198.38 Z" />
<path fill="#6a0000" opacity="1.00" d=" M 238.75 198.38 C 248.16 198.31 257.58 198.32 266.99 198.37 C 266.99 199.65 266.99 200.94 267.00 202.23 C 257.58 202.34 248.17 202.37 238.75 202.23 C 238.75 201.27 238.75 199.34 238.75 198.38 Z" />
<path fill="#6a0000" opacity="1.00" d=" M 272.46 198.37 C 282.37 198.31 292.28 198.32 302.19 198.38 C 302.18 199.34 302.18 201.27 302.18 202.23 C 292.24 202.35 282.30 202.35 272.37 202.23 C 272.40 200.94 272.43 199.66 272.46 198.37 Z" />
<path fill="#6a0000" opacity="1.00" d=" M 307.62 198.38 C 317.04 198.31 326.45 198.32 335.87 198.37 C 335.87 199.66 335.87 200.94 335.88 202.23 C 326.46 202.36 317.04 202.36 307.63 202.23 C 307.63 201.27 307.62 199.34 307.62 198.38 Z" />
<path fill="#6a0000" opacity="1.00" d=" M 341.31 198.38 C 350.98 198.31 360.65 198.30 370.32 198.38 C 370.31 199.35 370.31 201.27 370.31 202.23 C 360.64 202.38 350.97 202.33 341.31 202.24 C 341.31 200.95 341.30 199.66 341.31 198.38 Z" />
<path fill="#6a0000" opacity="1.00" d=" M 375.75 198.38 C 385.14 198.30 394.54 198.32 403.93 198.37 C 403.93 199.66 403.93 200.94 403.94 202.23 C 394.54 202.34 385.15 202.37 375.75 202.23 C 375.75 201.27 375.75 199.34 375.75 198.38 Z" />
<path fill="#6a0000" opacity="1.00" d=" M 409.37 198.38 C 419.56 198.32 429.74 198.31 439.93 198.37 C 439.93 199.66 439.93 200.94 439.94 202.23 C 429.75 202.35 419.57 202.35 409.38 202.24 C 409.37 200.95 409.37 199.66 409.37 198.38 Z" />
<path fill="#6a0000" opacity="1.00" d=" M 445.37 198.38 C 454.52 198.31 463.66 198.33 472.81 198.37 C 472.81 199.66 472.81 200.94 472.81 202.23 C 463.67 202.34 454.52 202.37 445.38 202.24 C 445.37 200.95 445.37 199.66 445.37 198.38 Z" />
<path fill="#6a0000" opacity="1.00" d=" M 581.56 198.38 C 590.98 198.30 600.39 198.32 609.81 198.37 C 609.80 199.66 609.81 200.94 609.82 202.23 C 600.40 202.37 590.98 202.34 581.57 202.23 C 581.56 201.27 581.56 199.34 581.56 198.38 Z" />
<path fill="#6a0000" opacity="1.00" d=" M 170.61 203.89 C 180.03 203.75 189.45 203.80 198.87 203.85 C 198.87 205.15 198.87 206.45 198.87 207.75 C 189.49 207.78 180.10 207.78 170.71 207.75 C 170.67 206.46 170.64 205.17 170.61 203.89 Z" />
<path fill="#6a0000" opacity="1.00" d=" M 204.32 203.85 C 213.98 203.81 223.65 203.75 233.31 203.89 C 233.31 205.17 233.30 206.46 233.30 207.76 C 223.64 207.77 213.97 207.78 204.31 207.75 C 204.31 206.45 204.31 205.15 204.32 203.85 Z" />
<path fill="#6a0000" opacity="1.00" d=" M 272.46 203.87 C 282.37 203.79 292.28 203.76 302.19 203.89 C 302.18 205.17 302.18 206.46 302.18 207.75 C 292.24 207.78 282.30 207.78 272.36 207.75 C 272.39 206.45 272.42 205.16 272.46 203.87 Z" />
<path fill="#6a0000" opacity="1.00" d=" M 307.63 203.89 C 317.04 203.77 326.46 203.77 335.88 203.88 C 335.87 205.17 335.87 206.46 335.87 207.75 C 326.45 207.77 317.04 207.80 307.62 207.74 C 307.62 206.78 307.63 204.85 307.63 203.89 Z" />
<path fill="#6a0000" opacity="1.00" d=" M 341.25 203.86 C 350.94 203.78 360.63 203.79 370.31 203.85 C 370.31 205.15 370.30 206.45 370.30 207.76 C 360.61 207.77 350.93 207.78 341.25 207.75 C 341.24 206.45 341.25 205.15 341.25 203.86 Z" />
<path fill="#6a0000" opacity="1.00" d=" M 375.75 203.89 C 385.15 203.77 394.54 203.77 403.94 203.88 C 403.93 205.17 403.93 206.46 403.94 207.75 C 394.54 207.78 385.14 207.79 375.75 207.75 C 375.74 206.46 375.75 205.17 375.75 203.89 Z" />
<path fill="#6a0000" opacity="1.00" d=" M 409.36 207.75 C 409.37 206.44 409.39 205.14 409.40 203.84 C 419.58 203.81 429.76 203.78 439.94 203.85 C 439.93 205.15 439.93 206.45 439.94 207.75 C 429.74 207.78 419.55 207.78 409.36 207.75 Z" />
<path fill="#6a0000" opacity="1.00" d=" M 445.38 203.89 C 454.52 203.75 463.66 203.81 472.81 203.85 C 472.81 205.15 472.81 206.45 472.81 207.75 C 463.67 207.79 454.52 207.79 445.37 207.75 C 445.37 206.46 445.37 205.17 445.38 203.89 Z" />
<path fill="#6a0000" opacity="1.00" d=" M 478.25 203.89 C 487.91 203.77 497.58 203.77 507.25 203.89 C 507.24 205.17 507.24 206.46 507.24 207.75 C 497.58 207.78 487.91 207.78 478.25 207.75 C 478.24 206.46 478.24 205.17 478.25 203.89 Z" />
<path fill="#6a0000" opacity="1.00" d=" M 170.70 209.32 C 180.09 209.26 189.48 209.25 198.87 209.31 C 198.87 210.60 198.87 211.88 198.88 213.17 C 189.45 213.29 180.03 213.30 170.61 213.17 C 170.63 212.21 170.68 210.28 170.70 209.32 Z" />
<path fill="#6a0000" opacity="1.00" d=" M 204.30 209.31 C 213.97 209.25 223.64 209.24 233.32 209.32 C 233.31 210.28 233.31 212.21 233.31 213.17 C 223.65 213.30 214.00 213.28 204.34 213.18 C 204.33 211.89 204.31 210.60 204.30 209.31 Z" />
<path fill="#6a0000" opacity="1.00" d=" M 272.37 209.32 C 282.31 209.25 292.25 209.26 302.18 209.31 C 302.18 210.59 302.18 211.88 302.18 213.17 C 292.25 213.29 282.31 213.29 272.37 213.17 C 272.37 211.88 272.37 210.60 272.37 209.32 Z" />
<path fill="#6a0000" opacity="1.00" d=" M 307.62 209.32 C 317.04 209.25 326.45 209.27 335.87 209.31 C 335.87 210.59 335.87 211.88 335.88 213.17 C 326.46 213.29 317.04 213.30 307.63 213.17 C 307.63 212.21 307.62 210.28 307.62 209.32 Z" />
<path fill="#6a0000" opacity="1.00" d=" M 341.25 209.31 C 350.94 209.27 360.63 209.25 370.32 209.32 C 370.31 210.28 370.31 212.21 370.31 213.17 C 360.62 213.31 350.93 213.28 341.25 213.17 C 341.24 211.88 341.24 210.60 341.25 209.31 Z" />
<path fill="#6a0000" opacity="1.00" d=" M 375.75 209.32 C 385.14 209.25 394.54 209.27 403.93 209.31 C 403.93 210.59 403.93 211.88 403.94 213.17 C 394.54 213.28 385.15 213.31 375.76 213.17 C 375.75 212.21 375.75 210.28 375.75 209.32 Z" />
<path fill="#6a0000" opacity="1.00" d=" M 409.38 209.32 C 419.56 209.26 429.75 209.25 439.93 209.31 C 439.93 210.59 439.93 211.88 439.94 213.17 C 429.75 213.29 419.55 213.30 409.36 213.17 C 409.36 211.88 409.37 210.60 409.38 209.32 Z" />
<path fill="#6a0000" opacity="1.00" d=" M 445.37 209.32 C 454.52 209.26 463.66 209.24 472.81 209.31 C 472.81 210.60 472.81 211.88 472.81 213.17 C 463.67 213.28 454.52 213.31 445.37 213.17 C 445.37 211.88 445.37 210.60 445.37 209.32 Z" />
<path fill="#6a0000" opacity="1.00" d=" M 204.31 214.83 C 213.98 214.70 223.65 214.70 233.31 214.83 C 233.31 216.11 233.31 217.40 233.31 218.69 C 223.64 218.71 213.98 218.72 204.31 218.69 C 204.31 217.40 204.31 216.11 204.31 214.83 Z" />
<path fill="#6a0000" opacity="1.00" d=" M 272.37 218.69 C 272.37 217.40 272.37 216.11 272.38 214.82 C 282.31 214.71 292.25 214.70 302.19 214.83 C 302.18 216.11 302.18 217.40 302.18 218.69 C 292.24 218.72 282.31 218.73 272.37 218.69 Z" />
<path fill="#6a0000" opacity="1.00" d=" M 341.25 214.80 C 350.94 214.72 360.62 214.72 370.31 214.80 C 370.31 216.09 370.31 217.39 370.31 218.69 C 360.62 218.73 350.94 218.73 341.25 218.69 C 341.24 217.39 341.25 216.09 341.25 214.80 Z" />
<path fill="#6a0000" opacity="1.00" d=" M 375.75 214.83 C 385.15 214.70 394.54 214.71 403.94 214.82 C 403.93 216.11 403.93 217.40 403.93 218.69 C 394.54 218.71 385.14 218.73 375.75 218.69 C 375.75 217.72 375.75 215.79 375.75 214.83 Z" />
<path fill="#6a0000" opacity="1.00" d=" M 409.38 214.80 C 419.56 214.72 429.75 214.72 439.94 214.80 C 439.93 216.09 439.93 217.39 439.94 218.69 C 429.75 218.72 419.56 218.72 409.37 218.69 C 409.37 217.39 409.37 216.09 409.38 214.80 Z" />
<path fill="#6a0000" opacity="1.00" d=" M 445.38 214.83 C 454.52 214.69 463.66 214.74 472.81 214.79 C 472.80 216.09 472.81 217.39 472.81 218.69 C 463.67 218.72 454.52 218.72 445.37 218.69 C 445.37 217.40 445.37 216.11 445.38 214.83 Z" />
<path fill="#6a0000" opacity="1.00" d=" M 204.31 220.25 C 213.98 220.20 223.64 220.19 233.31 220.25 C 233.31 221.53 233.31 222.82 233.31 224.11 C 223.65 224.23 213.98 224.23 204.31 224.11 C 204.31 222.82 204.31 221.54 204.31 220.25 Z" />
<path fill="#6a0000" opacity="1.00" d=" M 341.25 220.25 C 350.93 220.19 360.62 220.19 370.31 220.25 C 370.31 221.53 370.31 222.82 370.31 224.11 C 360.62 224.23 350.94 224.23 341.25 224.11 C 341.24 222.82 341.24 221.53 341.25 220.25 Z" />
<path fill="#6a0000" opacity="1.00" d=" M 375.75 220.25 C 385.15 220.20 394.54 220.19 403.93 220.25 C 403.93 221.53 403.93 222.82 403.94 224.11 C 394.54 224.23 385.15 224.23 375.75 224.11 C 375.75 222.82 375.75 221.54 375.75 220.25 Z" />
<path fill="#6a0000" opacity="1.00" d=" M 409.37 220.25 C 419.56 220.18 429.75 220.21 439.94 220.25 C 439.93 221.53 439.93 222.82 439.94 224.11 C 429.75 224.24 419.56 224.21 409.38 224.11 C 409.37 222.82 409.37 221.53 409.37 220.25 Z" />
<path fill="#6a0000" opacity="1.00" d=" M 445.37 220.25 C 454.52 220.20 463.66 220.19 472.81 220.25 C 472.81 221.54 472.81 222.82 472.81 224.11 C 463.67 224.24 454.52 224.22 445.38 224.11 C 445.37 222.82 445.37 221.54 445.37 220.25 Z" />
<path fill="#6a0000" opacity="1.00" d=" M 204.31 229.62 C 204.31 228.33 204.31 227.05 204.31 225.76 C 213.97 225.64 223.64 225.64 233.31 225.77 C 233.31 226.73 233.31 228.66 233.32 229.62 C 223.65 229.67 213.98 229.66 204.31 229.62 Z" />
<path fill="#6a0000" opacity="1.00" d=" M 341.25 225.76 C 350.93 225.64 360.62 225.64 370.31 225.77 C 370.31 226.73 370.31 228.65 370.32 229.62 C 360.63 229.67 350.94 229.66 341.25 229.63 C 341.25 228.34 341.24 227.05 341.25 225.76 Z" />
<path fill="#6a0000" opacity="1.00" d=" M 375.75 225.74 C 385.15 225.65 394.55 225.64 403.94 225.76 C 403.93 227.05 403.93 228.34 403.93 229.63 C 394.54 229.65 385.14 229.68 375.75 229.62 C 375.75 228.65 375.75 226.71 375.75 225.74 Z" />
<path fill="#6a0000" opacity="1.00" d=" M 409.37 229.62 C 409.37 228.33 409.37 227.05 409.38 225.76 C 419.56 225.64 429.75 225.64 439.94 225.76 C 439.93 227.05 439.93 228.34 439.93 229.63 C 429.74 229.65 419.56 229.67 409.37 229.62 Z" />
<path fill="#6a0000" opacity="1.00" d=" M 445.37 229.62 C 445.37 228.33 445.37 227.05 445.38 225.76 C 454.52 225.64 463.67 225.64 472.81 225.76 C 472.81 227.05 472.81 228.34 472.81 229.63 C 463.66 229.66 454.52 229.67 445.37 229.62 Z" />
<path fill="#6a0000" opacity="1.00" d=" M 204.31 231.19 C 213.98 231.13 223.64 231.14 233.31 231.19 C 233.31 232.47 233.31 233.75 233.31 235.04 C 223.64 235.17 213.98 235.17 204.31 235.04 C 204.31 233.75 204.31 232.47 204.31 231.19 Z" />
<path fill="#6a0000" opacity="1.00" d=" M 341.25 231.19 C 350.94 231.14 360.62 231.13 370.31 231.19 C 370.31 232.47 370.31 233.76 370.31 235.05 C 360.62 235.17 350.94 235.17 341.25 235.05 C 341.24 233.76 341.24 232.47 341.25 231.19 Z" />
<path fill="#6a0000" opacity="1.00" d=" M 409.37 231.19 C 419.56 231.14 429.75 231.13 439.94 231.18 C 439.93 232.47 439.93 233.76 439.94 235.05 C 429.75 235.17 419.56 235.17 409.38 235.04 C 409.37 233.76 409.37 232.47 409.37 231.19 Z" />
<path fill="#6a0000" opacity="1.00" d=" M 204.31 240.56 C 204.31 239.27 204.31 237.98 204.32 236.70 C 213.98 236.59 223.65 236.58 233.31 236.70 C 233.31 237.67 233.31 239.59 233.31 240.56 C 223.65 240.61 213.98 240.59 204.31 240.56 Z" />
<path fill="#6a0000" opacity="1.00" d=" M 409.37 240.56 C 409.37 239.26 409.37 237.97 409.38 236.68 C 419.57 236.59 429.75 236.59 439.94 236.68 C 439.93 237.97 439.93 239.27 439.93 240.57 C 429.74 240.59 419.56 240.60 409.37 240.56 Z" />
<path fill="#6a0000" opacity="1.00" d=" M 204.32 242.12 C 213.98 242.07 223.64 242.08 233.31 242.13 C 233.31 243.41 233.31 244.70 233.32 245.99 C 223.65 246.11 213.97 246.11 204.30 245.98 C 204.30 244.69 204.31 243.41 204.32 242.12 Z" />
</g>
<g id="#940000ff">
<path fill="#940000" opacity="1.00" d=" M 615.25 171.00 C 625.16 171.00 635.08 171.00 645.00 171.00 L 645.00 174.94 C 635.08 174.95 625.17 174.96 615.25 174.94 C 615.24 173.62 615.24 172.31 615.25 171.00 Z" />
<path fill="#940000" opacity="1.00" d=" M 615.24 176.51 C 625.16 176.44 635.08 176.42 645.00 176.51 L 645.00 180.36 C 635.08 180.47 625.17 180.48 615.25 180.36 C 615.24 179.07 615.24 177.79 615.24 176.51 Z" />
<path fill="#940000" opacity="1.00" d=" M 101.76 214.75 C 111.44 214.75 121.13 214.75 130.81 214.75 C 130.81 216.06 130.81 217.37 130.81 218.69 C 121.12 218.72 111.43 218.73 101.75 218.68 C 101.75 217.70 101.75 215.74 101.76 214.75 Z" />
<path fill="#940000" opacity="1.00" d=" M 272.37 220.25 C 282.31 220.20 292.25 220.20 302.18 220.25 C 302.18 221.53 302.18 222.82 302.18 224.11 C 292.25 224.23 282.31 224.23 272.38 224.11 C 272.37 222.82 272.37 221.53 272.37 220.25 Z" />
<path fill="#940000" opacity="1.00" d=" M 375.75 231.19 C 385.14 231.11 394.54 231.15 403.94 231.19 C 403.93 232.49 403.93 233.79 403.94 235.09 C 394.54 235.15 385.15 235.14 375.75 235.10 C 375.75 233.79 375.74 232.49 375.75 231.19 Z" />
<path fill="#940000" opacity="1.00" d=" M 341.24 236.69 C 350.93 236.58 360.62 236.59 370.31 236.69 C 370.31 237.65 370.31 239.59 370.32 240.56 C 360.63 240.61 350.94 240.60 341.25 240.56 C 341.25 239.27 341.24 237.98 341.24 236.69 Z" />
<path fill="#940000" opacity="1.00" d=" M 341.26 242.12 C 350.94 242.09 360.63 242.08 370.31 242.13 C 370.31 243.43 370.31 244.74 370.31 246.05 C 360.62 246.04 350.92 246.14 341.23 245.98 C 341.24 244.69 341.24 243.41 341.26 242.12 Z" />
<path fill="#940000" opacity="1.00" d=" M 409.37 242.13 C 419.56 242.06 429.74 242.08 439.93 242.12 C 439.93 243.40 439.94 244.69 439.96 245.98 C 429.76 246.14 419.57 246.05 409.38 246.04 C 409.37 244.73 409.37 243.43 409.37 242.13 Z" />
<path fill="#940000" opacity="1.00" d=" M 204.31 251.50 C 204.31 250.18 204.31 248.87 204.32 247.56 C 213.98 247.56 223.64 247.56 233.31 247.56 C 233.31 248.55 233.31 250.52 233.31 251.50 C 223.64 251.55 213.98 251.53 204.31 251.50 Z" />
<path fill="#940000" opacity="1.00" d=" M 409.38 251.50 C 409.37 250.18 409.37 248.87 409.38 247.56 C 419.56 247.59 429.75 247.48 439.94 247.63 C 439.94 248.92 439.93 250.21 439.93 251.50 C 429.74 251.54 419.56 251.55 409.38 251.50 Z" />
<path fill="#940000" opacity="1.00" d=" M 204.31 253.07 C 213.98 253.01 223.64 253.01 233.31 253.06 C 233.31 254.37 233.31 255.68 233.31 257.00 C 223.64 257.00 213.97 257.01 204.31 256.99 C 204.30 255.68 204.31 254.37 204.31 253.07 Z" />
</g>
</svg>
