<?xml version="1.0" encoding="UTF-8" ?>
<!DOCTYPE svg PUBLIC "-//W3C//DTD SVG 1.1//EN" "http://www.w3.org/Graphics/SVG/1.1/DTD/svg11.dtd">
<svg width="396pt" height="396pt" viewBox="0 0 396 396" version="1.1" xmlns="http://www.w3.org/2000/svg">
<g id="#ffffffff">
<path fill="#ffffff" opacity="1.00" d=" M 182.58 1.84 C 213.70 -0.74 245.39 4.50 274.13 16.67 C 304.48 29.53 331.53 50.11 352.01 75.94 C 369.34 97.62 382.07 122.98 388.91 149.89 C 395.76 176.67 396.88 204.91 391.96 232.11 C 383.73 279.60 356.97 323.43 318.97 352.98 C 300.85 367.30 280.14 378.31 258.18 385.45 C 209.18 401.57 153.80 397.00 108.17 372.91 C 60.91 348.58 24.20 304.47 9.30 253.40 C 1.92 228.70 -0.48 202.48 2.43 176.86 C 5.67 146.37 16.42 116.76 33.20 91.13 C 60.81 48.74 105.04 17.31 154.48 6.18 C 163.70 3.95 173.14 2.68 182.58 1.84 M 178.58 12.85 C 141.67 16.67 105.92 31.57 77.64 55.66 C 54.33 75.23 36.09 100.75 24.93 129.06 C 12.09 161.74 8.56 198.06 15.08 232.58 C 24.40 285.20 57.97 332.92 104.45 359.32 C 147.91 384.73 201.88 391.03 250.17 376.98 C 299.16 363.25 341.74 328.15 364.31 282.52 C 388.43 235.42 390.73 178.00 371.23 128.89 C 352.66 81.41 313.51 42.50 265.82 24.41 C 238.20 13.72 208.03 9.83 178.58 12.85 Z" />
<path fill="#ffffff" opacity="1.00" d=" M 108.68 110.33 C 134.43 110.31 160.19 110.37 185.94 110.30 C 185.90 136.05 185.91 161.81 185.94 187.56 C 160.19 187.50 134.45 187.56 108.71 187.53 C 108.66 161.79 108.71 136.06 108.68 110.33 M 119.39 120.99 C 119.41 139.61 119.33 158.23 119.43 176.85 C 137.99 176.88 156.55 176.83 175.12 176.87 C 175.39 158.25 175.16 139.62 175.24 121.00 C 156.62 121.02 138.00 121.04 119.39 120.99 Z" />
<path fill="#ffffff" opacity="1.00" d=" M 210.36 110.36 C 236.07 110.30 261.79 110.34 287.50 110.35 C 287.58 136.08 287.50 161.81 287.55 187.55 C 261.80 187.53 236.06 187.52 210.32 187.55 C 210.37 161.82 210.29 136.09 210.36 110.36 M 221.00 121.00 C 221.03 139.62 221.02 158.24 221.00 176.87 C 239.62 176.83 258.23 176.88 276.85 176.84 C 276.85 158.23 276.81 139.62 276.87 121.00 C 258.24 121.02 239.62 121.03 221.00 121.00 Z" />
<path fill="#ffffff" opacity="1.00" d=" M 108.68 208.61 C 134.42 208.63 160.16 208.58 185.90 208.64 C 185.94 234.37 185.90 260.10 185.92 285.83 C 160.19 285.85 134.46 285.84 108.73 285.83 C 108.63 260.09 108.72 234.35 108.68 208.61 M 119.40 219.39 C 119.37 237.95 119.40 256.51 119.38 275.07 C 138.00 275.27 156.61 275.12 175.23 275.14 C 175.12 256.53 175.49 237.89 175.04 219.29 C 156.50 219.42 137.95 219.20 119.40 219.39 Z" />
<path fill="#ffffff" opacity="1.00" d=" M 210.35 208.64 C 236.08 208.57 261.81 208.64 287.53 208.61 C 287.51 234.34 287.58 260.08 287.50 285.82 C 261.78 285.87 236.07 285.83 210.36 285.84 C 210.31 260.10 210.33 234.37 210.35 208.64 M 220.99 219.31 C 221.04 237.92 221.02 256.54 221.00 275.16 C 239.63 275.05 258.27 275.38 276.90 275.00 C 276.74 256.45 276.95 237.90 276.79 219.36 C 258.19 219.26 239.59 219.37 220.99 219.31 Z" />
</g>
</svg>
