<?xml version="1.0" encoding="utf-8"?>
<!-- Generator: Adobe Illustrator 25.2.0, SVG Export Plug-In . SVG Version: 6.00 Build 0)  -->
<svg version="1.1" id="search2" xmlns="http://www.w3.org/2000/svg" xmlns:xlink="http://www.w3.org/1999/xlink" x="0px" y="0px"
	 viewBox="0 0 94 94" style="enable-background:new 0 0 94 94;" xml:space="preserve">
<style type="text/css">
	.st0{fill:#890000;}
	.st1{fill:#FFFFFF;}
</style>
<circle id="Ellipse_12" class="st0" cx="47" cy="47" r="47"/>
<g id="search" transform="translate(6 6)">
	<circle id="Ellipse_5" cx="41" cy="41" r="41"/>
</g>
<g id="_x23_ffffffff">
	<path class="st1" d="M44.1,9.9c5.9-0.5,11.9,0.5,17.3,2.8c5.7,2.4,10.8,6.3,14.7,11.2c3.3,4.1,5.7,8.9,7,14
		c1.3,5.1,1.5,10.4,0.6,15.5c-1.6,9-6.6,17.2-13.8,22.8c-3.4,2.7-7.3,4.8-11.5,6.1c-9.3,3-19.7,2.2-28.3-2.4
		c-8.9-4.6-15.9-12.9-18.7-22.6C10,52.8,9.5,47.8,10.1,43c0.6-5.8,2.6-11.3,5.8-16.2c5.2-8,13.6-13.9,22.9-16
		C40.5,10.3,42.3,10.1,44.1,9.9 M43.3,12c-7,0.7-13.7,3.5-19.1,8.1c-4.4,3.7-7.8,8.5-10,13.9c-2.4,6.2-3.1,13-1.9,19.5
		c1.8,9.9,8.1,18.9,16.9,23.9c8.2,4.8,18.4,6,27.5,3.3c9.2-2.6,17.3-9.2,21.6-17.8c4.6-8.9,5-19.7,1.3-29
		c-3.5-9-10.9-16.3-19.9-19.7C54.6,12.2,48.9,11.5,43.3,12z"/>
	<path class="st1" d="M30.1,30.4c4.9,0,9.7,0,14.6,0c0,4.9,0,9.7,0,14.6c-4.9,0-9.7,0-14.6,0C30.1,40.2,30.1,35.3,30.1,30.4
		 M32.1,32.4c0,3.5,0,7,0,10.5c3.5,0,7,0,10.5,0c0.1-3.5,0-7,0-10.5C39.2,32.5,35.7,32.5,32.1,32.4z"/>
	<path class="st1" d="M49.3,30.4c4.9,0,9.7,0,14.6,0c0,4.9,0,9.7,0,14.6c-4.9,0-9.7,0-14.6,0C49.3,40.2,49.3,35.3,49.3,30.4
		 M51.3,32.4c0,3.5,0,7,0,10.5c3.5,0,7,0,10.5,0c0-3.5,0-7,0-10.5C58.4,32.5,54.8,32.5,51.3,32.4z"/>
	<path class="st1" d="M30.1,49c4.9,0,9.7,0,14.6,0c0,4.9,0,9.7,0,14.6c-4.9,0-9.7,0-14.6,0C30.1,58.7,30.1,53.9,30.1,49 M32.1,51
		c0,3.5,0,7,0,10.5c3.5,0,7,0,10.5,0c0-3.5,0-7,0-10.5C39.1,51,35.6,51,32.1,51z"/>
	<path class="st1" d="M49.3,49c4.9,0,9.7,0,14.6,0c0,4.9,0,9.7,0,14.6c-4.9,0-9.7,0-14.6,0C49.3,58.7,49.3,53.9,49.3,49 M51.3,51
		c0,3.5,0,7,0,10.5c3.5,0,7,0,10.6,0c0-3.5,0-7,0-10.5C58.3,51,54.8,51,51.3,51z"/>
</g>
</svg>
