<svg id="search2" xmlns="http://www.w3.org/2000/svg" width="94" height="94" viewBox="0 0 94 94">
  <circle id="Ellipse_12" data-name="Ellipse 12" cx="47" cy="47" r="47" fill="#890000"/>
  <g id="search" transform="translate(6 6)">
    <circle id="Ellipse_5" data-name="Ellipse 5" cx="41" cy="41" r="41"/>
    <path id="magnifier" d="M47.32,47.273a3.014,3.014,0,0,1-4.286,0L33.713,37.95A21.025,21.025,0,0,1,12.9,40.47,20.787,20.787,0,0,1,1.671,29.264a20.972,20.972,0,0,1,0-16.409,21.005,21.005,0,0,1,4.5-6.71A21.274,21.274,0,0,1,12.9,1.671a20.917,20.917,0,0,1,16.386,0,21.477,21.477,0,0,1,6.733,4.473,20.876,20.876,0,0,1,4.5,6.71,20.609,20.609,0,0,1,1.671,8.193A20.544,20.544,0,0,1,38,33.666l9.323,9.323a3.014,3.014,0,0,1,0,4.286ZM21.094,6.027A15.018,15.018,0,0,0,6.027,21.071,14.995,14.995,0,0,0,21.094,36.114,15.018,15.018,0,0,0,36.161,21.07,14.993,14.993,0,0,0,21.094,6.027Z" transform="translate(16.893 16.916)" fill="#fff"/>
  </g>
</svg>
