<svg xmlns="http://www.w3.org/2000/svg" width="36.002" height="33.23" viewBox="0 0 36.002 33.23">
  <path id="share-square-o" d="M30.462,21.4V27a6.241,6.241,0,0,1-6.231,6.231h-18a6,6,0,0,1-4.4-1.828A6,6,0,0,1,0,27V9A6,6,0,0,1,1.828,4.6a6,6,0,0,1,4.4-1.828h5.517a.7.7,0,0,1,.692.693.632.632,0,0,1-.563.692A14.484,14.484,0,0,0,9,5.452a.99.99,0,0,1-.346.087H6.231A3.334,3.334,0,0,0,3.786,6.556,3.334,3.334,0,0,0,2.769,9V27a3.334,3.334,0,0,0,1.017,2.445,3.334,3.334,0,0,0,2.445,1.017h18A3.472,3.472,0,0,0,27.693,27v-4.63a.682.682,0,0,1,.389-.627,4.552,4.552,0,0,0,1.168-.8.644.644,0,0,1,.757-.173.654.654,0,0,1,.454.627Zm5.127-10.731-8.308,8.308a1.285,1.285,0,0,1-.974.411,1.505,1.505,0,0,1-.541-.108A1.293,1.293,0,0,1,24.922,18V13.846h-3.46q-6.988,0-9.476,2.834-2.575,2.964-1.6,10.233a.667.667,0,0,1-.433.736,1.19,1.19,0,0,1-.26.043.679.679,0,0,1-.563-.281q-.216-.3-.454-.671T7.82,25.258Q7.2,24.144,6.75,23.106a17.411,17.411,0,0,1-.833-2.466A10.284,10.284,0,0,1,5.538,18q0-1.06.076-1.969a15,15,0,0,1,.3-1.947,10.149,10.149,0,0,1,.606-1.9A9.928,9.928,0,0,1,7.54,10.417a8.466,8.466,0,0,1,1.482-1.6,11.5,11.5,0,0,1,2.044-1.331A14.058,14.058,0,0,1,13.76,6.436a23.011,23.011,0,0,1,3.45-.66,35.316,35.316,0,0,1,4.252-.238h3.462V1.385A1.292,1.292,0,0,1,25.768.109,1.505,1.505,0,0,1,26.309,0a1.331,1.331,0,0,1,.974.411L35.591,8.72a1.36,1.36,0,0,1,0,1.948Z" transform="translate(0 -0.001)" fill="#fff"/>
</svg>
